<svg height="64" viewBox="0 0 64 64" width="64" xmlns="http://www.w3.org/2000/svg"><g fill="none" fill-rule="evenodd"><g fill="#979797"><path d="m9 21h15v10h-6.9978137c-2.7626312 0-5.6457616-2.1452509-6.4406782-4.794973z"/><path d="m42 21h15v10h-6.9978137c-2.7626312 0-5.6457616-2.1452509-6.4406782-4.794973z" transform="matrix(-1 0 0 1 99 0)"/><path d="m20.1470796 12.933868s-14.65543004-.7581528-9.6790397-10.933868c0 0-8.18857539 6.85009193-4.52438939 11.0959226 3.664186 4.2458306 14.64404239 5.8488572 14.64404239 5.8488572"/><path d="m60.1470796 12.933868s-14.65543-.7581528-9.6790397-10.933868c0 0-8.1885754 6.85009193-4.5243894 11.0959226 3.664186 4.2458306 14.6440424 5.8488572 14.6440424 5.8488572" transform="matrix(-1 0 0 1 105.588 0)"/></g><path d="m16.3117394 16.9649252c.3801158-3.2943372 3.3752385-5.9649252 6.6884363-5.9649252h19.9996486c3.3138056 0 6.3071299 2.6602699 6.6884363 5.9649252l2.3117394 20.0350748h-38z" fill="#d8d8d8"/><path d="m12 40.9933547c0-3.8623231 3.1396498-6.9933547 7.0062098-6.9933547h27.9875804c3.8694228 0 7.0062098 3.1304531 7.0062098 6.9933547v8.0107611c0 7.1774287-5.8178561 12.9958842-13.0014322 12.9958842h-15.9971356c-7.1804927 0-13.0014322-5.8186182-13.0014322-12.9958842z" fill="#595959"/><circle cx="42" cy="48" fill="#979797" r="4"/><circle cx="24" cy="48" fill="#979797" r="4"/><circle cx="27" cy="27" fill="#595959" r="2"/><circle cx="39" cy="27" fill="#595959" r="2"/></g></svg>