<svg enable-background="new 0 0 190.408 190.407" height="190.407" viewBox="0 0 190.408 190.407" width="190.408" xmlns="http://www.w3.org/2000/svg"><path d="m98.069 3.567c-92.609-29.654-127.469 134.108-51.524 175.905 52.597 28.947 111.642-3.116 132.632-54.666 21.545-52.912-15.146-137.819-81.108-121.239zm63.522 38.647c-3.967-3.02-8.014-5.806-11.332-8.391-7.941-6.187-16.005-12.354-24.243-18.218 15.359 4.604 27.338 14.158 35.575 26.609zm-46.288-28.956c10.333 8.188 20.959 15.974 31.097 24.424 7.915 6.597 15.195 15.814 23.648 21.821 1.244 3.588 2.283 7.278 3.052 11.069-23.456-20.225-49.009-37.958-72.715-57.903 5.235-.27 10.201-.047 14.918.589zm-74.972 150.432c-13-10.231-20.536-24.626-24.059-40.328 6.923 8.747 14.194 17.215 21.562 25.593 7.937 9.026 16.21 18.99 25.504 27.161-8.059-2.699-15.834-6.78-23.007-12.426zm32.467 14.943c-8.611-10.354-19.515-19.269-28.876-28.932-10.121-10.447-19.496-21.515-28.851-32.631-1.071-6.915-1.404-14.003-1.149-21.039 28.021 27.594 53.474 59.775 85.003 83.329-8.661 1.159-17.487.978-26.127-.727zm32.907-.457c-29.979-28.74-60.329-57.841-91.609-85.21.266-4.357.789-8.668 1.476-12.904 35.773 29.263 67.896 61.728 99.427 95.528-3.053 1.032-6.155 1.902-9.294 2.586zm15.024-4.777c-.105-.187-.167-.377-.324-.556-31.128-35.203-66.709-67.771-104.238-96.181.699-3.685 1.552-7.281 2.535-10.771 36.152 35.017 73.577 68.716 109.643 103.838-2.49 1.336-5.019 2.583-7.616 3.67zm12.246-6.336c-.112-.349-.295-.693-.569-1.022-32.123-38.68-74.338-70.367-113.032-102.464 1.428-4.646 3.179-9.042 5.186-13.201 13.153 21.709 36.624 39.021 55.464 55.098 20.847 17.79 41.538 37.476 63.608 53.806-3.373 2.857-6.924 5.478-10.657 7.783zm14.816-11.543c-15.854-19.474-40.057-34.427-59.463-49.803-22.54-17.86-42.578-37.063-62.762-57.299 1.828-3.552 3.885-6.88 6.117-10.009 19.169 16.599 39.098 32.292 58.7 48.375 23.146 18.992 42.916 40.489 64.581 60.803-2.253 2.789-4.62 5.467-7.173 7.933zm16.441-22.035c-1.715 3.344-3.695 6.481-5.808 9.502-14.605-21.992-38.959-39.271-59.25-55.373-21.82-17.314-44.458-33.547-66.1-51.08 3.109-4.086 6.583-7.736 10.353-10.948 36.456 36.394 77.023 69.506 116.067 102.977 2.947 2.527 7.057-1.443 4.302-4.303-35.786-37.146-79.91-65.757-118.04-100.569 2.91-2.257 6.009-4.216 9.248-5.922 20.675 15.953 41.714 31.41 62.055 47.802 19.695 15.871 35.688 34.224 53.81 51.34-1.689 5.643-3.882 11.202-6.637 16.574zm8.692-24.774c-10.546-17.354-32.468-31.62-47.254-43.333-21.754-17.233-44.577-33.145-67.166-49.274 3.777-1.693 7.744-3.017 11.885-3.938-.008.369.147.742.584.994 39.575 22.878 67.944 57.878 103.467 85.637-.337 3.307-.833 6.617-1.516 9.914zm-99.631-97.094c5.974-1.035 12.28-1.266 18.895-.523.652 1.231 1.858 2.1 3.645 1.919.459-.047.901-.063 1.357-.102 24.702 23.525 51.958 44.16 77.302 66.991.363 3.774.511 7.599.414 11.452-31.885-28.082-63.39-61.009-101.613-79.737z"/></svg>