<svg fill="none" height="24" viewBox="0 0 24 24" width="24" xmlns="http://www.w3.org/2000/svg"><g fill="#000"><path d="m16 15.5c1.7849 0 3.2778-1.363 3.464-3.1319.0257-.2436.0257-.4926 0-.7362-.1862-1.76888-1.6791-3.1319-3.464-3.1319-1.7848 0-3.2778 1.36302-3.464 3.1319-.0256.2436-.0256.4926 0 .7362.1862 1.7689 1.6792 3.1319 3.464 3.1319z"/><path clip-rule="evenodd" d="m15.9257 18.75h-7.85136c-3.3215 0-6.14937-2.4164-6.6674-5.6973-.11013-.6975-.11013-1.4079 0-2.1054.51803-3.2809 3.34591-5.6973 6.6674-5.6973h7.85136c3.3215 0 6.1493 2.4164 6.6674 5.6973.1101.6975.1101 1.4079 0 2.1054-.5181 3.2809-3.3459 5.6973-6.6674 5.6973zm0-1.5c2.5834 0 4.7828-1.8794 5.1857-4.4312.0857-.5425.0857-1.0951 0-1.6376-.4029-2.55178-2.6023-4.4312-5.1857-4.4312h-7.85136c-2.58338 0-4.78284 1.87942-5.18575 4.4312-.08566.5425-.08566 1.0951-.00001 1.6376.40292 2.5518 2.60237 4.4312 5.18576 4.4312z" fill-rule="evenodd"/></g></svg>