<svg fill="none" height="24" viewBox="0 0 24 24" width="24" xmlns="http://www.w3.org/2000/svg"><g fill="#000"><path d="m8 15.5c-1.78483 0-3.27782-1.363-3.46401-3.1319-.02565-.2436-.02565-.4926 0-.7362.18619-1.76888 1.67917-3.1319 3.46401-3.1319 1.78483 0 3.2778 1.36302 3.464 3.1319.0256.2436.0256.4926 0 .7362-.1862 1.7689-1.67917 3.1319-3.464 3.1319z"/><path clip-rule="evenodd" d="m8.07434 18.75h7.85136c3.3215 0 6.1493-2.4164 6.6674-5.6973.1101-.6975.1101-1.4079 0-2.1054-.5181-3.2809-3.3459-5.6973-6.6674-5.6973h-7.85136c-3.3215 0-6.14937 2.4164-6.6674 5.6973-.11013.6975-.11013 1.4079 0 2.1054.51803 3.2809 3.3459 5.6973 6.6674 5.6973zm0-1.5c-2.58339 0-4.78284-1.8794-5.18575-4.4312-.08566-.5425-.08566-1.0951 0-1.6376.40291-2.55178 2.60236-4.4312 5.18575-4.4312h7.85136c2.5834 0 4.7828 1.87942 5.1857 4.4312.0857.5425.0857 1.0951 0 1.6376-.4029 2.5518-2.6023 4.4312-5.1857 4.4312z" fill-rule="evenodd"/></g></svg>