<?xml version="1.0" encoding="UTF-8" standalone="no"?>
<svg
   xmlns:dc="http://purl.org/dc/elements/1.1/"
   xmlns:cc="http://creativecommons.org/ns#"
   xmlns:rdf="http://www.w3.org/1999/02/22-rdf-syntax-ns#"
   xmlns:svg="http://www.w3.org/2000/svg"
   xmlns="http://www.w3.org/2000/svg"
   xmlns:sodipodi="http://sodipodi.sourceforge.net/DTD/sodipodi-0.dtd"
   xmlns:inkscape="http://www.inkscape.org/namespaces/inkscape"
   width="132.29167mm"
   height="132.29167mm"
   viewBox="0 0 132.29167 132.29167"
   version="1.1"
   id="svg8"
   inkscape:version="1.0.2 (e86c8708, 2021-01-15)"
   sodipodi:docname="bg.svg">
  <defs
     id="defs2" />
  <sodipodi:namedview
     id="base"
     pagecolor="#ffffff"
     bordercolor="#666666"
     borderopacity="1.0"
     inkscape:pageopacity="0.0"
     inkscape:pageshadow="2"
     inkscape:zoom="0.98994949"
     inkscape:cx="134.69097"
     inkscape:cy="269.23115"
     inkscape:document-units="mm"
     inkscape:current-layer="layer1"
     inkscape:document-rotation="0"
     showgrid="false"
     fit-margin-top="0"
     fit-margin-left="0"
     fit-margin-right="0"
     fit-margin-bottom="0"
     inkscape:window-width="1248"
     inkscape:window-height="943"
     inkscape:window-x="0"
     inkscape:window-y="23"
     inkscape:window-maximized="0"
     inkscape:snap-page="false"
     inkscape:snap-grids="false"
     inkscape:snap-to-guides="false"
     inkscape:pagecheckerboard="true" />
  <metadata
     id="metadata5">
    <rdf:RDF>
      <cc:Work
         rdf:about="">
        <dc:format>image/svg+xml</dc:format>
        <dc:type
           rdf:resource="http://purl.org/dc/dcmitype/StillImage" />
        <dc:title></dc:title>
      </cc:Work>
    </rdf:RDF>
  </metadata>
  <g
     inkscape:label="Ebene 1"
     inkscape:groupmode="layer"
     id="layer1"
     transform="translate(-15.497022,-15.497022)"
     style="display:inline;mix-blend-mode:normal">
    <path
       style="fill:#000000;stroke-width:0.264583"
       d="m 87.595982,115.49628 c -0.291042,-0.11778 -0.90266,-0.22252 -1.359151,-0.23274 -0.456494,-0.0102 -2.435575,-0.43011 -4.39796,-0.93306 -3.430794,-0.8793 -6.590819,-1.37579 -12.708504,-1.9967 -1.570358,-0.15939 -4.07067,-0.64206 -5.55625,-1.0726 -3.74414,-1.0851 -9.940108,-2.35263 -12.338985,-2.52423 -2.100535,-0.15025 -2.110949,-0.13563 -0.63759,0.89468 0.844317,0.59043 -2.153483,0.11779 -4.673436,-0.73682 -4.678613,-1.5867 -5.056111,-1.75999 -5.540087,-2.54319 -0.605935,-0.98056 -3.839155,-4.07126 -4.258993,-4.07126 -0.244142,0 -0.240919,-0.0952 0.01362,-0.40184 0.273306,-0.32931 0.243339,-0.50838 -0.166041,-0.99219 -0.274745,-0.32469 -0.577955,-0.65018 -0.673799,-0.72331 -0.291442,-0.222378 0.07193,-1.54171 0.466292,-1.693041 0.203186,-0.07797 0.369429,-0.02644 0.369429,0.114514 0,0.140955 0.238125,0.256281 0.529166,0.256281 0.63352,0 0.677176,-0.230312 0.120775,-0.637162 -0.224616,-0.164242 -0.44503,-0.642265 -0.48981,-1.062273 -0.04478,-0.420007 -0.259772,-0.894064 -0.47776,-1.053462 -0.217988,-0.159396 -0.392427,-0.408874 -0.387644,-0.554395 0.0048,-0.14552 -0.408379,-0.538503 -0.91814,-0.873297 -0.781937,-0.513551 -0.908933,-0.730715 -0.812308,-1.389062 0.06299,-0.429191 0.269689,-0.780349 0.459327,-0.780349 0.189638,0 0.394736,-0.0893 0.455773,-0.198438 0.06104,-0.10914 0.07469,-0.04961 0.03035,0.132292 -0.122998,0.504555 0.664448,0.394364 1.418071,-0.198437 0.37,-0.291042 0.880217,-0.529167 1.133815,-0.529167 0.253599,0 0.609309,-0.178594 0.790466,-0.396875 0.181157,-0.218281 0.627033,-0.396875 0.990835,-0.396875 0.569792,0 0.613899,-0.05731 0.318274,-0.413512 -0.301561,-0.36336 -0.253171,-0.390922 0.398973,-0.227243 1.056295,0.265113 0.768737,-0.461293 -0.326064,-0.823674 -1.147548,-0.379841 -1.330014,-0.636188 -0.753104,-1.058035 0.557284,-0.407495 0.410701,-1.181703 -0.223735,-1.181703 -0.525857,0 -0.516936,-0.371623 0.01961,-0.816917 0.382055,-0.317079 0.349708,-0.412414 -0.321544,-0.94765 -0.623317,-0.497017 -0.734067,-0.765011 -0.671909,-1.625899 0.04093,-0.566936 -0.112027,-2.013694 -0.339914,-3.215016 -0.448626,-2.364965 -0.536684,-3.786259 -0.201945,-3.259484 0.285192,0.448802 4.078845,0.849482 9.841772,1.039469 3.28109,0.108169 4.807564,0.07365 4.630208,-0.104707 -0.458732,-0.461319 -6.226344,-1.216308 -9.317863,-1.219721 -2.367783,-0.0026 -2.911521,-0.07117 -2.689202,-0.339045 0.431141,-0.519491 0.02853,-0.888113 -0.970014,-0.888113 -0.779767,0 -0.898447,-0.08255 -0.844281,-0.587262 0.05232,-0.487497 -0.285311,-0.765508 -1.987494,-1.636543 l -2.050521,-1.049285 0.0041,-1.340016 c 0.0028,-0.926976 0.07967,-1.220452 0.249392,-0.952109 0.197368,0.31206 0.297707,0.250174 0.513155,-0.316497 0.201453,-0.529862 0.516632,-0.751001 1.271962,-0.89245 0.552282,-0.103423 1.420867,-0.376619 1.93019,-0.607097 l 0.926042,-0.419053 -1.719792,-0.15522 c -0.945885,-0.08537 -1.511432,-0.175768 -1.256771,-0.200885 0.254662,-0.02512 0.463021,-0.16473 0.463021,-0.31025 0,-0.145521 -0.02977,-0.266378 -0.06615,-0.268568 -0.03638,-0.0021 -0.542396,-0.175559 -1.124479,-0.38526 -0.857439,-0.308904 -0.932774,-0.383956 -0.396875,-0.395375 0.553531,-0.0118 0.43481,-0.144079 -0.727604,-0.810715 -0.763984,-0.438142 -1.389063,-0.870381 -1.389063,-0.960538 0,-0.09015 0.20836,-0.316275 0.463021,-0.502492 0.434192,-0.317492 0.424229,-0.379864 -0.160012,-1.001768 -0.720033,-0.76645 -0.528819,-1.336389 0.389463,-1.160848 0.724193,0.138438 0.83919,-0.192157 0.192694,-0.553953 -0.241634,-0.135226 -0.370265,-0.420841 -0.287118,-0.637522 0.149849,-0.390498 2.038307,-0.995878 3.106605,-0.995878 0.307951,0 0.486326,-0.119063 0.396389,-0.264584 -0.232675,-0.376478 4.965404,-0.341616 5.800548,0.0389 0.80033,0.364655 1.678977,-0.136371 1.21647,-0.69366 -0.146053,-0.175983 -0.177287,-0.41728 -0.06941,-0.536218 0.107876,-0.118936 -0.01222,-0.141483 -0.266879,-0.0501 -0.600459,0.215458 -0.617228,-0.593326 -0.04701,-2.266842 0.327128,-0.960062 0.567393,-1.252381 1.124479,-1.368097 0.574693,-0.119375 8.181885,-1.209394 8.440296,-1.209394 0.04036,0 0.07338,-0.348105 0.07338,-0.773565 0,-0.425461 0.138604,-1.374035 0.308012,-2.107944 0.281567,-1.219816 0.412178,-1.383546 1.521354,-1.907095 3.011728,-1.421588 7.054138,-2.39507 12.040156,-2.899471 6.307304,-0.638069 29.145863,0.142589 35.475264,1.212601 2.45628,0.415245 4.50271,0.990608 5.73195,1.611564 l 0.70487,0.356066 -0.41526,1.298559 c -0.39329,1.229828 -0.4726,1.306417 -1.49862,1.447022 -0.59585,0.08165 -4.00039,0.09393 -7.565642,0.02729 -8.04858,-0.150452 -8.029697,-0.136511 3.968742,2.930012 4.72943,1.208731 8.93413,2.327299 9.34379,2.485705 0.40966,0.158406 1.0645,0.2915 1.45521,0.295765 0.86571,0.0094 2.48381,1.396677 2.27224,1.948026 -0.0855,0.22284 0.0748,0.503947 0.38071,0.667679 0.65709,0.35166 1.07265,3.318317 0.59091,4.218448 -0.24013,0.448696 -0.19333,0.766252 0.23735,1.610458 0.58638,1.149398 0.68979,2.40842 0.26328,3.205358 -0.22999,0.429755 -0.13763,0.592863 0.58436,1.031931 0.47164,0.286821 1.64496,0.760672 2.60738,1.052997 0.96241,0.292324 1.96807,0.772628 2.23478,1.067339 0.26671,0.294714 0.62115,0.535842 0.78764,0.535842 0.1665,0 0.45341,0.416719 0.63758,0.926042 0.33579,0.928619 0.91441,1.214197 1.20618,0.595313 0.0858,-0.181901 0.0909,0.0066 0.0115,0.418883 -0.11549,0.599352 -0.0362,0.777904 0.39529,0.890754 0.30224,0.07904 0.53973,0.360407 0.53973,0.63945 0,0.276074 0.18495,0.498309 0.41471,0.498309 0.3086,0 0.36727,0.152302 0.2293,0.595312 -0.52915,1.699133 -2.80642,3.817234 -4.96371,4.616784 -0.6801,0.252063 -1.23655,0.542107 -1.23655,0.644543 0,0.277053 2.2756,0.963734 4.23333,1.277448 0.94589,0.151572 3.66371,0.454583 6.0396,0.673359 2.3759,0.218776 4.54879,0.520322 4.82865,0.670097 0.51124,0.273609 0.65098,1.025475 0.52661,2.833394 -0.0325,0.472943 0.0567,0.859896 0.19838,0.859896 0.14164,0 0.0319,0.724982 -0.2439,1.611072 -0.27578,0.886092 -0.50142,1.879669 -0.50142,2.207953 0,0.801106 -0.61763,1.290336 -2.51354,1.991003 -2.19336,0.810593 -5.00105,0.998397 -6.62973,0.443452 -0.69836,-0.237955 -1.8895,-0.432646 -2.64697,-0.432646 -1.29219,0 -1.38586,0.04493 -1.51691,0.727604 -0.18664,0.972203 0.0658,1.217226 1.9684,1.910969 1.32401,0.482759 1.65837,0.524891 1.84377,0.232333 0.15207,-0.239969 0.22779,-0.0682 0.23051,0.522883 0.003,0.627309 0.23864,1.114838 0.82043,1.696627 0.59237,0.592374 0.78268,0.992654 0.69358,1.458804 -0.0676,0.35333 -0.004,1.02889 0.14077,1.50126 0.19616,0.63913 0.17102,1.03183 -0.0983,1.53508 -0.48914,0.91416 -2.45789,3.01399 -3.19641,3.40923 -0.32888,0.17602 -2.234,0.4142 -4.23358,0.5293 -1.99959,0.11511 -3.86275,0.33084 -4.14035,0.4794 -0.2776,0.14857 -1.32207,0.94425 -2.32103,1.76818 -2.27677,1.87784 -3.55109,2.47136 -5.32203,2.47877 -1.21074,0.005 -1.38907,0.0738 -1.38907,0.53498 0,0.38079 -0.17639,0.52916 -0.62906,0.52916 -0.34598,0 -0.77728,0.1786 -0.95844,0.39688 -0.21987,0.26493 -0.81418,0.39687 -1.78763,0.39687 -1.70145,0 -3.55983,0.48943 -3.32165,0.8748 0.16613,0.26881 -1.434987,0.15297 -3.332373,-0.24109 -0.6097,-0.12663 -0.844912,-0.0963 -0.727458,0.0937 0.208973,0.33812 -8.392711,0.38765 -9.219423,0.0531 z m -15.478125,-5.27842 c 0,-0.14552 -0.2778,-0.26459 -0.617331,-0.26459 -0.339532,0 -1.289246,-0.13494 -2.110476,-0.29986 -1.570217,-0.31535 -1.791446,-0.75847 -0.378661,-0.75847 0.518967,0 0.736661,-0.093 0.579697,-0.24776 -0.276535,-0.27257 -3.442915,-0.69444 -7.111394,-0.94747 -2.124972,-0.14656 -2.327585,-0.12131 -2.018123,0.25157 0.422423,0.50899 0.264382,0.51076 -1.572879,0.0176 -0.800365,-0.21482 -2.348177,-0.37892 -3.439584,-0.36465 l -1.984375,0.026 1.984375,0.49993 c 1.091407,0.27496 3.055938,0.57711 4.365625,0.67145 1.309688,0.0943 2.616103,0.33254 2.903144,0.52932 0.287038,0.19678 0.82282,0.34592 1.190625,0.33142 l 0.668732,-0.0264 -0.661459,-0.21183 c -0.534209,-0.17109 -0.413451,-0.21691 0.627708,-0.23821 1.089147,-0.0223 1.240478,0.0323 0.975344,0.35176 -0.262376,0.31614 -0.105026,0.40631 0.95979,0.54998 0.700489,0.0945 1.392679,0.21261 1.5382,0.26243 0.646187,0.22126 4.101042,0.10987 4.101042,-0.13221 z m -5.870443,-0.70991 c 0.190995,-0.0764 0.419198,-0.067 0.507119,0.0209 0.08792,0.0879 -0.06835,0.15045 -0.347266,0.13896 -0.308226,-0.0127 -0.370919,-0.0754 -0.159853,-0.15985 z m 10.707315,-0.4639 c 0.07482,-0.32004 -1.512795,-0.73178 -2.417623,-0.62699 -0.694264,0.0804 -0.692581,0.0844 0.226584,0.54413 0.953971,0.47709 2.088846,0.52001 2.191039,0.0829 z m -20.182706,-2.00119 c 0,-0.14552 -0.327422,-0.26276 -0.727604,-0.26053 -0.566986,0.003 -0.639993,0.0607 -0.330729,0.26053 0.517665,0.33454 1.058333,0.33454 1.058333,0 z m 12.7,-0.26279 c 0.218282,0.008 1.141016,0.0804 2.050521,0.16178 1.075815,0.0963 1.653646,0.0506 1.653646,-0.13077 0,-0.52164 -1.019736,-0.82652 -2.826877,-0.84515 -1.201195,-0.0124 -1.626643,-0.0906 -1.274165,-0.23427 0.496457,-0.20234 0.488281,-0.22513 -0.132291,-0.36872 -0.979512,-0.22666 -3.40573,-0.3301 -3.287917,-0.14019 0.05605,0.0903 0.491337,0.25887 0.967306,0.3745 l 0.865402,0.21024 -1.17008,0.15466 c -2.535108,0.3351 -0.794496,1.19653 1.831539,0.90644 0.509323,-0.0563 1.104635,-0.0961 1.322916,-0.0885 z M 85.829444,93.901657 c -0.04705,-0.24266 -0.32367,-0.472417 -0.614712,-0.510569 -0.291042,-0.03815 -1.005417,-0.183301 -1.5875,-0.322551 -2.137505,-0.511353 -2.812008,-0.582057 -2.622158,-0.274871 0.110442,0.178697 0.03742,0.242295 -0.185283,0.16138 -0.202157,-0.07345 -0.34272,-0.252709 -0.312362,-0.398356 0.07348,-0.352489 -1.879973,-0.664679 -1.99745,-0.319223 -0.05433,0.15975 -0.593043,0.198451 -1.355162,0.09735 -0.713449,-0.09464 -1.332928,-0.05788 -1.420812,0.08432 -0.152303,0.246427 4.503946,1.198274 8.025519,1.640602 0.945885,0.118805 1.81782,0.23111 1.937628,0.249565 0.119811,0.01844 0.179343,-0.164991 0.132292,-0.407651 z M 66.790873,93.29388 c 0.359522,-0.417833 0.610145,-0.465963 1.490525,-0.28625 0.582084,0.118821 0.939271,0.244636 0.79375,0.279585 -0.14552,0.03495 0.271198,0.153895 0.926042,0.264321 1.420424,0.239533 2.081678,-0.150325 0.69592,-0.410295 -0.528277,-0.0991 -0.960503,-0.329956 -0.960503,-0.513003 0,-0.183046 -0.446485,-0.406609 -0.992188,-0.496808 -1.593718,-0.263427 -9.278901,-0.196413 -9.451224,0.08241 -0.154572,0.250106 1.111279,0.673646 2.638203,0.882714 l 0.79375,0.108683 -0.859896,0.03964 c -0.472942,0.0218 -0.859896,0.150424 -0.859896,0.285825 0,0.394028 1.038728,0.516789 3.271976,0.386701 1.615358,-0.0941 2.178116,-0.233698 2.513541,-0.623527 z m 6.6499,-1.566813 C 73.222492,91.60692 71.972336,91.304634 70.662648,91.055317 69.352961,90.806 67.761556,90.354827 67.126196,90.05271 c -1.604817,-0.763098 -5.791161,-0.997858 -6.680915,-0.37465 -0.440335,0.308425 -1.198367,0.431464 -2.658181,0.431464 -1.123199,0 -2.113257,0.115004 -2.20013,0.255566 -0.0985,0.159377 0.46822,0.203346 1.505741,0.116819 0.915027,-0.07631 2.378062,-0.02724 3.251187,0.109045 l 1.5875,0.247793 -1.984375,0.04751 c -1.091406,0.02614 -2.460625,0.140313 -3.042708,0.25374 l -1.058334,0.206227 1.042856,0.21435 c 0.573569,0.117893 2.954819,0.149976 5.291666,0.07129 2.336845,-0.07868 5.379906,-0.05594 6.762354,0.05054 3.709326,0.285697 4.958373,0.298098 4.497916,0.04465 z M 87.46369,91.437481 c 0,-0.356513 -1.214236,-0.632606 -1.635939,-0.371978 -0.24506,0.151456 -0.154851,0.264443 0.31569,0.395409 0.977267,0.272008 1.320249,0.26592 1.320249,-0.02344 z m -3.307291,-0.269624 c -0.08994,-0.145521 -0.722043,-0.248909 -1.404679,-0.229753 -1.219816,0.03423 -1.225235,0.03818 -0.315113,0.229753 1.393703,0.293362 1.9011,0.293362 1.719792,0 z M 75.689732,86.1286 c -1.747695,-0.272214 -7.160491,-0.261387 -6.085417,0.01217 0.436563,0.111085 2.282031,0.200155 4.101042,0.197927 2.545813,-0.0031 3.002701,-0.05149 1.984375,-0.2101 z m 4.72979,-0.728649 c 0.07194,-0.116411 -0.307981,-0.226518 -0.844281,-0.244679 -0.850908,-0.02881 -0.890852,-0.0052 -0.313634,0.185283 0.90197,0.297682 1.007306,0.303085 1.157915,0.0594 z m 26.623338,0.110223 c 0,-0.234879 -1.07042,-0.357645 -1.20598,-0.138311 -0.0815,0.13186 0.15651,0.239744 0.5289,0.239744 0.37239,0 0.67708,-0.04565 0.67708,-0.101433 z M 78.057753,85.101305 c -0.138245,-0.135146 -0.668073,-0.294685 -1.177396,-0.354534 -0.649129,-0.07627 -0.451332,-0.128272 0.661458,-0.173897 1.381133,-0.05662 1.486059,-0.09538 0.807141,-0.298151 -2.23348,-0.66707 -7.813919,-1.113478 -12.184224,-0.974677 -2.473855,0.07857 -5.986198,0.05416 -7.805209,-0.05424 -4.060272,-0.241966 -8.073671,0.06325 -10.439212,0.793891 -0.980517,0.30285 -1.740099,0.593299 -1.687957,0.64544 0.207401,0.207399 5.512586,0.290955 5.512586,0.08682 0,-0.120275 1.815703,-0.22705 4.034896,-0.237279 2.74311,-0.01265 3.86548,-0.09865 3.505729,-0.268647 -0.452231,-0.213699 -0.428908,-0.230884 0.160425,-0.118197 1.650584,0.315613 7.029841,0.668252 10.687492,0.700627 3.250829,0.02877 6.454476,0.213503 7.924271,0.456935 0.15875,0.0263 0.15875,-0.0489 0,-0.204089 z m 23.745107,-0.708572 c -0.87276,-0.381255 -1.51911,-0.287359 -1.23099,0.178823 0.0837,0.135464 0.59168,0.236588 1.12879,0.224719 l 0.97657,-0.02159 -0.87437,-0.381958 z M 99.899107,84.28869 c -0.218281,-0.141065 -0.575468,-0.256479 -0.79375,-0.256479 -0.352776,0 -0.352776,0.0285 0,0.256479 0.218282,0.141066 0.575469,0.25648 0.79375,0.25648 0.352773,0 0.352773,-0.0285 0,-0.25648 z m -2.64042,-0.520223 c -0.215304,-0.136144 -0.870148,-0.327179 -1.455208,-0.424519 -1.277382,-0.212524 -3.048122,-0.887495 -3.048122,-1.161878 0,-0.224197 -3.248292,-0.803796 -4.504785,-0.803796 -0.911508,0 -0.992883,0.592277 -0.103497,0.753284 0.278982,0.05051 0.618273,0.197258 0.753978,0.326112 0.135704,0.128858 -0.15358,0.119476 -0.642856,-0.02085 -0.489275,-0.140321 -0.958019,-0.365844 -1.041649,-0.501163 -0.225504,-0.364874 -7.767915,-1.193803 -8.656852,-0.951407 l -0.753297,0.205409 0.661458,0.200224 c 0.556728,0.168521 0.577675,0.2072 0.132292,0.244297 -0.917692,0.07643 1.792803,0.793205 2.910416,0.769639 1.514407,-0.03193 8.900986,0.749927 11.244792,1.190241 2.351273,0.441719 5.094055,0.547942 4.50333,0.174403 z m -9.050856,-2.041766 c 0.190995,-0.07643 0.419201,-0.06703 0.507119,0.02087 0.08792,0.08792 -0.06835,0.150453 -0.347266,0.138965 -0.308226,-0.0127 -0.370919,-0.07539 -0.159853,-0.159851 z m -10.70056,-0.0052 c 0.213508,-0.213509 -1.787101,-0.862368 -2.677435,-0.868374 -0.327422,-0.0021 -0.595313,0.123566 -0.595313,0.279504 0,0.155934 0.267891,0.261818 0.595313,0.235294 0.985205,-0.0798 1.296657,-0.0037 1.124479,0.274936 -0.184872,0.299127 1.259338,0.372261 1.552956,0.07864 z M 73.96994,81.11369 c 0,-0.212177 -1.382151,-0.554524 -1.554041,-0.384921 -0.05436,0.05363 -0.03397,0.266528 0.04529,0.473099 0.148862,0.387924 1.508749,0.308446 1.508749,-0.08818 z m -1.984375,0 c -0.08994,-0.145521 -0.543449,-0.250497 -1.007803,-0.23328 l -0.84428,0.03131 0.79375,0.201975 c 1.150704,0.292804 1.239298,0.292804 1.058333,0 z m 0.132292,-0.79375 c 0,-0.145521 -0.364215,-0.264583 -0.809366,-0.264583 -0.472202,0 -0.741246,0.11022 -0.645843,0.264583 0.08994,0.145521 0.454152,0.264584 0.809366,0.264584 0.355214,0 0.645843,-0.119063 0.645843,-0.264584 z m -2.828655,-1.984375 c -0.07099,-0.371708 -1.03976,-0.604245 -2.645834,-0.635084 -1.42276,-0.02732 -2.149081,0.387408 -1.08477,0.619402 1.975014,0.430507 3.811301,0.438224 3.730604,0.01569 z m 2.43178,-0.132291 c -0.08994,-0.145521 -0.483918,-0.252715 -0.875512,-0.23821 l -0.711988,0.02637 0.661458,0.211836 c 0.939133,0.300762 1.111925,0.300762 0.926042,0 z M 60.079315,77.93869 c 0.399404,-0.17163 0.224811,-0.231949 -0.711989,-0.245986 -0.682635,-0.01024 -1.314741,0.100465 -1.404678,0.245986 -0.199697,0.323115 1.364737,0.323115 2.116667,0 z M 57.30119,77.674107 c 0,-0.145521 -0.327422,-0.256215 -0.727604,-0.245986 -0.644748,0.01648 -0.667346,0.04449 -0.198438,0.245986 0.722678,0.310544 0.926042,0.310544 0.926042,0 z m 41.758413,-3.405706 c 0.403955,-0.256098 -1.044527,-0.555451 -2.710323,-0.560131 -1.292466,-0.0036 -1.043175,0.299476 0.445887,0.542147 1.61826,0.263729 1.873615,0.265755 2.264436,0.01799 z m -3.922996,-2.236716 c 0,-0.192913 -0.270666,-0.605031 -0.60148,-0.915816 -0.484478,-0.455144 -1.243634,-0.642493 -3.902604,-0.96311 -6.760988,-0.815231 -19.151124,-1.374793 -22.086541,-0.997466 -1.292336,0.166122 -0.603621,0.24098 3.704166,0.402619 9.563124,0.358834 16.54985,1.175904 21.563543,2.521776 1.290724,0.346482 1.322916,0.345313 1.322916,-0.048 z M 53.134002,111.88756 c 0.254662,-0.0665 0.463021,-0.21072 0.463021,-0.32036 0,-0.10965 0.355973,-0.14712 0.791051,-0.0833 1.153102,0.16924 0.690859,0.59127 -0.608229,0.55531 -0.609875,-0.0169 -0.900504,-0.0851 -0.645843,-0.15169 z m 3.042709,0.007 c 0.181901,-0.0734 0.479557,-0.0734 0.661458,0 0.181901,0.0734 0.03307,0.13345 -0.330729,0.13345 -0.363802,0 -0.512631,-0.06 -0.330729,-0.13345 z m -4.497917,-0.26458 c 0.181901,-0.0734 0.479557,-0.0734 0.661458,0 0.181901,0.0734 0.03307,0.13345 -0.330729,0.13345 -0.363802,0 -0.51263,-0.0601 -0.330729,-0.13345 z m -5.88698,-0.62774 c -0.345577,-0.15451 -0.02429,-0.18152 0.926042,-0.0778 0.800365,0.0873 1.504818,0.20215 1.565452,0.2552 0.234284,0.20497 -1.990637,0.0466 -2.491494,-0.17735 z"
       id="path24" />
  </g>
</svg>
