<svg id="eb2n881sv4091" xmlns="http://www.w3.org/2000/svg" xmlns:xlink="http://www.w3.org/1999/xlink" viewBox="0 0 423.333330 423.333330" shape-rendering="geometricPrecision" text-rendering="geometricPrecision"><style><![CDATA[#eb2n881sv4093_tr {animation: eb2n881sv4093_tr__tr 10000ms linear infinite normal forwards}@keyframes eb2n881sv4093_tr__tr { 0% {transform: translate(243.553734px,553.340043px) rotate(0deg)} 16% {transform: translate(243.553734px,553.340043px) rotate(0deg)} 20% {transform: translate(243.553734px,553.340043px) rotate(-1deg)} 22% {transform: translate(243.553734px,553.340043px) rotate(-1deg)} 24% {transform: translate(243.553734px,553.340043px) rotate(0deg)} 28% {transform: translate(243.553734px,553.340043px) rotate(1deg)} 30% {transform: translate(243.553734px,553.340043px) rotate(0deg)} 38% {transform: translate(243.553734px,553.340043px) rotate(-2deg)} 56% {transform: translate(243.553734px,553.340043px) rotate(0deg)} 100% {transform: translate(243.553734px,553.340043px) rotate(0deg)} }#eb2n881sv4093_ts {animation: eb2n881sv4093_ts__ts 10000ms linear infinite normal forwards}@keyframes eb2n881sv4093_ts__ts { 0% {transform: scale(1,1)} 33% {transform: scale(1,1)} 58% {transform: scale(0.980000,0.980000)} 81% {transform: scale(1.020000,1.020000)} 99.900000% {transform: scale(1.020000,1.020000)} 100% {transform: scale(1,1)} }#eb2n881sv4094_to {animation: eb2n881sv4094_to__to 10000ms linear infinite normal forwards}@keyframes eb2n881sv4094_to__to { 0% {transform: translate(207.115386px,635.081418px)} 40% {transform: translate(207.115386px,635.081418px)} 78% {transform: translate(205.706217px,637.967461px)} 100% {transform: translate(205.706217px,637.967461px)} }#eb2n881sv4094 {animation: eb2n881sv4094_c_o 10000ms linear infinite normal forwards}@keyframes eb2n881sv4094_c_o { 0% {opacity: 1} 77.800000% {opacity: 1} 79% {opacity: 0} 80% {opacity: 1} 81% {opacity: 0.220000} 82% {opacity: 1} 83% {opacity: 0.220000} 84% {opacity: 1} 100% {opacity: 1} }#eb2n881sv4095_tr {animation: eb2n881sv4095_tr__tr 10000ms linear infinite normal forwards}@keyframes eb2n881sv4095_tr__tr { 0% {transform: translate(243.537449px,553.289390px) rotate(0deg)} 50% {transform: translate(243.537449px,553.289390px) rotate(0deg)} 52% {transform: translate(243.537449px,553.289390px) rotate(-2deg)} 54% {transform: translate(243.537449px,553.289390px) rotate(-2deg)} 56% {transform: translate(243.537449px,553.289390px) rotate(2deg)} 64% {transform: translate(243.537449px,553.289390px) rotate(0deg)} 100% {transform: translate(243.537449px,553.289390px) rotate(0deg)} }#eb2n881sv4095_ts {animation: eb2n881sv4095_ts__ts 10000ms linear infinite normal forwards}@keyframes eb2n881sv4095_ts__ts { 0% {transform: scale(1,1)} 20% {transform: scale(0.950000,0.950000)} 58% {transform: scale(1.050000,1.050000)} 100% {transform: scale(1,1)} }#eb2n881sv4096_tr {animation: eb2n881sv4096_tr__tr 10000ms linear infinite normal forwards}@keyframes eb2n881sv4096_tr__tr { 0% {transform: translate(294.543071px,524.535656px) rotate(-10deg)} 34% {transform: translate(294.543071px,524.535656px) rotate(-10deg)} 36% {transform: translate(294.543071px,524.535656px) rotate(10deg)} 38% {transform: translate(294.543071px,524.535656px) rotate(-10deg)} 60% {transform: translate(294.543071px,524.535656px) rotate(-10deg)} 62% {transform: translate(294.543071px,524.535656px) rotate(10deg)} 64% {transform: translate(294.543071px,524.535656px) rotate(-10deg)} 84.200000% {transform: translate(294.543071px,524.535656px) rotate(-10deg)} 86.200000% {transform: translate(294.543071px,524.535656px) rotate(10deg)} 88.200000% {transform: translate(294.543071px,524.535656px) rotate(-10deg)} 100% {transform: translate(294.543071px,524.535656px) rotate(-10deg)} }#eb2n881sv4096 {animation: eb2n881sv4096_c_o 10000ms linear infinite normal forwards}@keyframes eb2n881sv4096_c_o { 0% {opacity: 1} 54% {opacity: 1} 55% {opacity: 0} 56% {opacity: 1} 100% {opacity: 1} }]]></style><g id="eb2n881sv4092" transform="matrix(1 0 0 1 -28.89765739440918 -341.66505457031246)"><g id="eb2n881sv4093_tr" transform="translate(243.553734,553.340043) rotate(0)"><g id="eb2n881sv4093_ts" transform="scale(1,1)"><path id="eb2n881sv4093" d="M250.709040,331.047330C250.065550,330.786930,248.713260,330.555340,247.703960,330.532750C246.694640,330.510250,242.318880,329.581770,237.980030,328.469740C230.394520,326.525600,223.407690,325.427850,209.881440,324.055020C206.409370,323.702610,200.881160,322.635420,197.596530,321.683500C189.318210,319.284330,175.618880,316.481820,170.314950,316.102400C165.670650,315.770200,165.647620,315.802520,168.905230,318.080550C170.772020,319.385990,164.143860,318.340990,158.572230,316.451440C148.227780,312.943220,147.393130,312.560080,146.323060,310.828420C144.983340,308.660400,137.834660,301.826840,136.906400,301.826840C136.366600,301.826840,136.373730,301.616350,136.936400,300.938360C137.540670,300.210260,137.474420,299.814330,136.569280,298.744620C135.961810,298.026740,135.291410,297.307070,135.079510,297.145380C134.435120,296.653700,135.238540,293.736650,136.110480,293.402050C136.559730,293.229670,136.927280,293.343550,136.927280,293.655250C136.927280,293.966900,137.453790,294.221890,138.097280,294.221890C139.497990,294.221890,139.594520,293.712660,138.364310,292.813120C137.867680,292.449980,137.380350,291.393070,137.281340,290.464430C137.182340,289.535790,136.706980,288.487650,136.225020,288.135210C135.743040,287.782790,135.357340,287.231190,135.367920,286.909450C135.378120,286.587700,134.465000,285.718800,133.337910,284.978570C131.609040,283.843110,131.328260,283.362960,131.541890,281.907350C131.681210,280.958410,132.138180,280.181990,132.557470,280.181990C132.976750,280.181990,133.430230,279.984540,133.565180,279.743250C133.700150,279.501930,133.730320,279.633530,133.632180,280.035750C133.360240,281.151310,135.101290,280.907680,136.767550,279.597000C137.585630,278.953500,138.713720,278.427010,139.274430,278.427010C139.835140,278.427010,140.621610,278.032130,141.022150,277.549520C141.422680,277.066890,142.408520,276.672020,143.212890,276.672020C144.472710,276.672020,144.570220,276.545320,143.916600,275.757750C143.249850,274.954350,143.356840,274.893410,144.798730,275.255310C147.134200,275.841470,146.498420,274.235380,144.077800,273.434160C141.540560,272.594330,141.137130,272.027540,142.412680,271.094830C143.644830,270.193850,143.320750,268.482080,141.918000,268.482080C140.755330,268.482080,140.775060,267.660430,141.961400,266.675870C142.806130,265.974800,142.734610,265.764020,141.250470,264.580620C139.872320,263.481710,139.627440,262.889160,139.764880,260.985740C139.855480,259.732240,139.517180,256.533440,139.013320,253.877320C138.021410,248.648360,137.826710,245.505870,138.566820,246.670570C139.197380,247.662880,147.585170,248.548780,160.327050,248.968850C167.581550,249.208010,170.956600,249.131680,170.564480,248.737340C169.550210,247.717360,156.797970,246.048070,149.962610,246.040520C144.727420,246.034520,143.525210,245.883170,144.016770,245.290900C144.970020,244.142300,144.079870,243.327280,141.872060,243.327280C140.147990,243.327280,139.885580,243.144750,140.005340,242.028830C140.121010,240.950970,139.374520,240.336290,135.610980,238.410420L131.077270,236.090450L131.086270,233.127660C131.092270,231.078110,131.262410,230.429230,131.637670,231.022540C132.074050,231.712510,132.295900,231.575680,132.772250,230.322770C133.217670,229.151240,133.914540,228.662290,135.584580,228.349550C136.805680,228.120890,138.726130,227.516840,139.852240,227.007250L141.899730,226.080730L138.097250,225.737540C136.005890,225.548780,134.755470,225.348910,135.318530,225.293370C135.881580,225.237770,136.342270,224.929150,136.342270,224.607420C136.342270,224.285660,136.276370,224.018450,136.196010,224.013600C136.115610,224.009600,134.996770,223.625440,133.709780,223.161790C131.813980,222.478800,131.647410,222.312860,132.832280,222.287620C134.056140,222.261520,133.793650,221.969060,131.223550,220.495120C129.534370,219.526380,128.152310,218.570700,128.152310,218.371370C128.152310,218.172050,128.613000,217.672080,129.176060,217.260340C130.136060,216.558370,130.114030,216.420460,128.822280,215.045430C127.230280,213.350810,127.653050,212.090670,129.683370,212.478790C131.284570,212.784880,131.538830,212.053930,130.109430,211.253990C129.575170,210.955010,129.290770,210.323510,129.474600,209.844440C129.805920,208.981030,133.981320,207.642540,136.343330,207.642540C137.024220,207.642540,137.418610,207.379290,137.219750,207.057540C136.705310,206.225150,148.198300,206.302230,150.044800,207.143640C151.814340,207.949900,153.757030,206.842120,152.734430,205.609960C152.411500,205.220850,152.342450,204.687340,152.580970,204.424380C152.819480,204.161400,152.553970,204.111550,151.990890,204.313640C150.663270,204.790020,150.626190,203.001790,151.886970,199.301640C152.610260,197.178930,153.141490,196.532610,154.373200,196.276760C155.643860,196.012820,172.463410,193.602790,173.034760,193.602790C173.124060,193.602790,173.197010,192.833120,173.197010,191.892420C173.197010,190.951730,173.503470,188.854420,173.878020,187.231740C174.500570,184.534730,174.789360,184.172710,177.241750,183.015150C183.900700,179.872000,192.838490,177.719630,203.862610,176.604390C217.808120,175.193620,268.304340,176.919660,282.298680,179.285460C287.729540,180.203580,292.254210,181.475710,294.972070,182.848640L296.530540,183.635910L295.612390,186.507040C294.742830,189.226190,294.567470,189.395520,292.298940,189.706410C290.981510,189.886930,283.454040,189.914090,275.571250,189.766810C257.775780,189.434160,257.817530,189.464980,284.346170,196.245090C294.802970,198.917610,304.099590,201.390760,305.005360,201.741010C305.911110,202.091230,307.358970,202.385510,308.222840,202.394950C310.136920,202.415650,313.714560,205.483000,313.246770,206.702040C313.057730,207.194740,313.412150,207.816280,314.088530,208.178290C315.541360,208.955810,316.460160,215.515100,315.395030,217.505310C314.864100,218.497370,314.967580,219.199490,315.919820,221.066030C317.216300,223.607370,317.444940,226.391070,316.501930,228.153100C315.993410,229.103300,316.197620,229.463930,317.793950,230.434720C318.836750,231.068870,321.430970,232.116570,323.558890,232.762900C325.686780,233.409220,327.910310,234.471180,328.500000,235.122800C329.089710,235.774410,329.873360,236.307550,330.241480,236.307550C330.609600,236.307550,331.243970,237.228920,331.651170,238.355020C332.393610,240.408210,333.672940,241.039630,334.318040,239.671270C334.507740,239.269090,334.519020,239.685770,334.343440,240.597420C334.088100,241.922600,334.263440,242.317380,335.217430,242.566890C335.885690,242.741640,336.410780,243.363750,336.410780,243.980710C336.410780,244.591110,336.819700,245.082480,337.327700,245.082480C338.010030,245.082480,338.139740,245.419220,337.834690,246.398710C336.664730,250.155510,331.629680,254.838660,326.859890,256.606450C325.356190,257.163760,324.125870,257.805060,324.125870,258.031550C324.125870,258.644110,329.157230,260.162370,333.485800,260.855990C335.577160,261.191120,341.586280,261.861070,346.839390,262.344790C352.092520,262.828510,356.896800,263.495230,357.515560,263.826390C358.645920,264.431330,358.954890,266.093720,358.679910,270.091040C358.608110,271.136710,358.805300,271.992270,359.118540,271.992270C359.431700,271.992270,359.189040,273.595210,358.579260,275.554370C357.969520,277.513520,357.470620,279.710330,357.470620,280.436170C357.470620,282.207420,356.105040,283.289110,351.913170,284.838290C347.063630,286.630520,340.855810,287.045750,337.254790,285.818770C335.710710,285.292640,333.077080,284.862170,331.402320,284.862170C328.545280,284.862170,328.338170,284.961470,328.048410,286.470920C327.635750,288.620470,328.193910,289.162210,332.400560,290.696080C335.327960,291.763470,336.067230,291.856620,336.477150,291.209770C336.813370,290.679200,336.980800,291.058980,336.986820,292.365870C336.993820,293.752860,337.514450,294.830780,338.800790,296.117120C340.110520,297.426870,340.531300,298.311890,340.334310,299.342560C340.184840,300.123760,340.325310,301.617430,340.645540,302.661850C341.079260,304.074970,341.023670,304.943230,340.428200,306.055920C339.346710,308.077140,334.993780,312.719880,333.360910,313.593750C332.633760,313.982930,328.421530,314.509550,324.000440,314.764050C319.579330,315.018550,315.459870,315.495530,314.846100,315.824000C314.232320,316.152490,311.922990,317.911730,309.714280,319.733460C304.680320,323.885370,301.862790,325.197650,297.947240,325.214030C295.270280,325.225630,294.875990,325.377200,294.875990,326.396880C294.875990,327.238810,294.486000,327.566860,293.485140,327.566860C292.720180,327.566860,291.766560,327.961740,291.366010,328.444360C290.879890,329.030110,289.565860,329.321840,287.413550,329.321840C283.651630,329.321840,279.542750,330.403970,280.069370,331.256030C280.436680,331.850380,276.896600,331.594250,272.701460,330.722980C271.353410,330.443000,270.833350,330.510060,271.093040,330.930150C271.555090,331.677730,252.536710,331.787240,250.708830,331.047560ZM216.486810,319.376700C216.486810,319.054970,215.872590,318.791700,215.121880,318.791700C214.371170,318.791700,212.271340,318.493340,210.455600,318.128700C206.983840,317.431460,206.494710,316.451720,209.618370,316.451720C210.765810,316.451720,211.247140,316.246100,210.900090,315.903930C210.288670,315.301270,203.287780,314.368510,195.176760,313.809070C190.478420,313.485020,190.030450,313.540840,190.714660,314.365280C191.648640,315.490670,191.299210,315.494570,187.237020,314.404180C185.467410,313.929210,182.045180,313.566380,179.632080,313.597930L175.244610,313.655430L179.632080,314.760780C182.045180,315.368730,186.388780,316.036770,189.284510,316.245370C192.180240,316.453860,195.068720,316.980610,195.703370,317.415690C196.338010,317.850780,197.522630,318.180530,198.335850,318.148470L199.814430,318.090170L198.351930,317.621800C197.170790,317.243520,197.437790,317.142220,199.739810,317.095130C202.147910,317.045730,202.482510,317.166530,201.896290,317.872860C201.316180,318.571850,201.664080,318.771220,204.018400,319.088880C205.567180,319.297820,207.097620,319.558960,207.419370,319.669120C208.848100,320.158320,216.486810,319.912040,216.486810,319.376800ZM203.507210,317.807100C203.929500,317.638170,204.434050,317.658950,204.628450,317.853300C204.822840,318.047640,204.477330,318.185940,203.860650,318.160540C203.179160,318.132340,203.040550,317.993830,203.507210,317.807100ZM227.181160,316.781410C227.346580,316.073800,223.836360,315.163430,221.835780,315.395130C220.300760,315.572880,220.304470,315.581740,222.336750,316.598200C224.445990,317.653060,226.955210,317.747940,227.181160,316.781500ZM182.557050,312.356750C182.557050,312.035020,181.833120,311.775800,180.948320,311.780720C179.694700,311.787720,179.533290,311.914960,180.217070,312.356750C181.361630,313.096440,182.557050,313.096440,182.557050,312.356750ZM210.636850,311.775730C211.119460,311.793430,213.159640,311.953500,215.170560,312.133430C217.549200,312.346350,218.826780,312.245320,218.826780,311.844290C218.826780,310.690940,216.572140,310.016860,212.576540,309.975660C209.920690,309.948260,208.980020,309.775350,209.759350,309.457690C210.857030,309.010310,210.838940,308.959920,209.466860,308.642450C207.301150,308.141300,201.936760,307.912590,202.197240,308.332480C202.321180,308.532140,203.283600,308.904850,204.335960,309.160510L206.249380,309.625340L203.662330,309.967300C198.057170,310.708210,201.905680,312.612840,207.711860,311.971450C208.837980,311.846930,210.154220,311.758970,210.636850,311.775770ZM246.803210,283.301470C246.699160,282.764940,246.087580,282.256960,245.444090,282.172590C244.800580,282.088290,243.221110,281.767320,241.934110,281.459440C237.208070,280.328820,235.716750,280.172500,236.136500,280.851690C236.380690,281.246790,236.219200,281.387410,235.726850,281.208500C235.279880,281.046110,234.969080,280.649760,235.036200,280.327730C235.198680,279.548370,230.879580,278.858120,230.619840,279.621920C230.499670,279.975140,229.308610,280.060710,227.623560,279.837170C226.046120,279.627920,224.676440,279.709160,224.482130,280.023600C224.145390,280.568460,234.440390,282.673000,242.226610,283.650980C244.317970,283.913670,246.245830,284.161970,246.510720,284.202780C246.775620,284.243580,246.907240,283.837980,246.803210,283.301450ZM204.708800,281.957670C205.503700,281.033830,206.057840,280.927420,208.004360,281.324770C209.291350,281.587490,210.081090,281.865660,209.759350,281.942920C209.437600,282.020320,210.358970,282.283190,211.806840,282.527350C214.947400,283.056950,216.409440,282.194970,213.345520,281.620180C212.177490,281.401070,211.221840,280.890650,211.221840,280.485920C211.221840,280.081220,210.234650,279.586920,209.028100,279.387480C205.504380,278.805050,188.512390,278.953210,188.131380,279.569690C187.789630,280.122680,190.588430,281.059130,193.964470,281.521380L195.719450,281.761670L193.818210,281.849370C192.772540,281.897570,191.916990,282.181960,191.916990,282.481340C191.916990,283.352540,194.213620,283.623960,199.151350,283.336340C202.722920,283.128280,203.967170,282.819630,204.708800,281.957710ZM219.411780,278.493440C218.929150,278.227780,216.165060,277.559430,213.269330,277.008180C210.373600,276.456950,206.854990,275.459400,205.450210,274.791410C201.901950,273.104200,192.645900,272.585140,190.678650,273.963060C189.705070,274.644990,188.029050,274.917040,184.801400,274.917040C182.318000,274.917040,180.128980,275.171310,179.936900,275.482090C179.719100,275.834480,180.972140,275.931700,183.266100,275.740370C185.289230,275.571660,188.524010,275.680170,190.454500,275.981480L193.964470,276.529360L189.577000,276.634430C187.163890,276.692230,184.136540,276.944660,182.849550,277.195440L180.509560,277.651410L182.815330,278.125350C184.083500,278.386000,189.348450,278.456940,194.515240,278.282970C199.682020,278.109010,206.410260,278.159320,209.466860,278.394720C217.668210,279.026400,220.429850,279.053830,219.411780,278.493420ZM250.416550,277.853160C250.416550,277.064900,247.731870,276.454450,246.799470,277.030710C246.257640,277.365580,246.457090,277.615390,247.497470,277.904970C249.658220,278.506370,250.416550,278.492920,250.416550,277.853170ZM243.104110,277.257020C242.905250,276.935270,241.507670,276.706680,239.998350,276.749020C237.301330,276.824620,237.289340,276.833520,239.301640,277.257020C242.383120,277.905630,243.504980,277.905630,243.104110,277.257020ZM224.384240,266.115190C220.520080,265.513320,208.552340,265.537250,210.929350,266.142090C211.894590,266.387690,215.974940,266.584630,219.996770,266.579700C225.625590,266.572700,226.635770,266.465910,224.384240,266.115160ZM234.841850,264.504130C235.000910,264.246740,234.160900,264.003300,232.975130,263.963150C231.093770,263.899450,231.005450,263.951550,232.281690,264.372800C234.275940,265.030980,234.508850,265.042930,234.841850,264.504150ZM293.706240,264.747830C293.706240,264.228520,291.339520,263.957080,291.039800,264.442030C290.859610,264.733570,291.385850,264.972100,292.209210,264.972100C293.032560,264.972100,293.706240,264.871240,293.706240,264.747830ZM229.619950,263.843820C229.314290,263.545010,228.142840,263.192280,227.016720,263.059950C225.581500,262.891320,226.018820,262.776330,228.479220,262.675460C231.532910,262.550210,231.764900,262.464570,230.263810,262.016250C225.325570,260.541350,212.987180,259.554340,203.324410,259.861230C197.854690,260.034950,190.088870,259.980960,186.067030,259.741360C177.089730,259.206380,168.216080,259.881260,162.985860,261.496650C160.817930,262.166270,159.138490,262.808450,159.253780,262.923730C159.712330,263.382290,171.442140,263.567030,171.442140,263.115690C171.442140,262.849760,175.456670,262.613690,180.363320,262.591060C186.428360,262.563060,188.909930,262.372950,188.114520,261.997090C187.114630,261.524590,187.166200,261.486600,188.469210,261.735760C192.118670,262.433570,204.012250,263.213260,212.099340,263.284840C219.286940,263.348440,226.370220,263.756900,229.619950,264.295130C229.970950,264.353330,229.970950,264.187010,229.619950,263.843890ZM282.120550,262.277160C280.190880,261.434210,278.761790,261.641810,279.398820,262.672550C279.583890,262.972060,280.707030,263.195640,281.894590,263.169400L284.053800,263.121700L282.120550,262.277170ZM277.911340,262.047130C277.428730,261.735230,276.638980,261.480050,276.156360,261.480050C275.376360,261.480050,275.376360,261.543050,276.156360,262.047130C276.638980,262.359030,277.428730,262.614210,277.911340,262.614210C278.691330,262.614210,278.691330,262.551210,277.911340,262.047130ZM272.073360,260.896910C271.597320,260.595890,270.149450,260.173520,268.855880,259.958290C266.031580,259.488410,262.116470,257.996040,262.116470,257.389370C262.116470,256.893680,254.934460,255.612170,252.156350,255.612170C250.141010,255.612170,249.961070,256.921700,251.927520,257.277690C252.544350,257.389440,253.294530,257.713840,253.594570,257.998730C253.894610,258.283630,253.255010,258.262890,252.173210,257.952530C251.091420,257.642280,250.055020,257.143650,249.870120,256.844460C249.371530,256.037720,232.695210,254.204950,230.729760,254.740890L229.064210,255.195060L230.526690,255.637750C231.757620,256.010350,231.803940,256.095860,230.819200,256.177890C228.790170,256.346880,234.783100,257.931660,237.254150,257.879560C240.602510,257.809060,256.934290,259.537650,262.116470,260.511200C267.315140,261.487830,273.379450,261.722700,272.073360,260.896810ZM252.061860,256.382550C252.484140,256.213560,252.988710,256.234340,253.183100,256.428750C253.377480,256.623140,253.031970,256.761400,252.415290,256.736000C251.733790,256.707900,251.595180,256.569310,252.061860,256.382570ZM228.402840,256.370950C228.874900,255.898880,224.451540,254.464250,222.483010,254.450970C221.759080,254.446970,221.166760,254.724180,221.166760,255.068960C221.166760,255.413730,221.759080,255.647840,222.483010,255.589190C224.661310,255.412760,225.349920,255.580190,224.969240,256.197070C224.560490,256.858450,227.753640,257.020140,228.402840,256.370950ZM220.581770,255.027080C220.581770,254.557960,217.525820,253.801020,217.145770,254.176020C217.025600,254.294590,217.070770,254.765310,217.245910,255.222040C217.575050,256.079740,220.581770,255.904010,220.581770,255.027080ZM216.194300,255.027080C215.995440,254.705340,214.992730,254.473230,213.966040,254.511300L212.099340,254.580500L213.854320,255.027060C216.398540,255.674440,216.594420,255.674440,216.194300,255.027060ZM216.486810,253.272100C216.486810,252.950340,215.681510,252.687090,214.697290,252.687090C213.653240,252.687090,213.058380,252.930790,213.269330,253.272100C213.468180,253.593830,214.273450,253.857080,215.058830,253.857080C215.844220,253.857080,216.486810,253.593830,216.486810,253.272100ZM210.232620,248.884620C210.075660,248.062770,207.933710,247.548630,204.382660,247.480450C201.236940,247.420050,199.631030,248.337010,201.984240,248.849950C206.351000,249.801800,210.411040,249.818870,210.232620,248.884650ZM215.609310,248.592130C215.410450,248.270380,214.539360,248.033380,213.673540,248.065440L212.099340,248.123740L213.561820,248.592120C215.638250,249.257100,216.020300,249.257100,215.609310,248.592120ZM189.869500,248.007240C190.752580,247.627770,190.366550,247.494410,188.295290,247.463370C186.785970,247.440770,185.388390,247.685500,185.189530,248.007240C184.748000,248.721660,188.206980,248.721660,189.869500,248.007240ZM183.727040,247.422250C183.727040,247.100500,183.003110,246.855750,182.118310,246.878380C180.692760,246.914780,180.642810,246.976780,181.679560,247.422250C183.277400,248.108860,183.727040,248.108860,183.727040,247.422250ZM276.055190,239.892220C276.948340,239.325980,273.745730,238.664100,270.062650,238.653750C267.205000,238.646750,267.756190,239.315910,271.048510,239.852450C274.626490,240.435550,275.191090,240.440040,276.055190,239.892250ZM267.381420,234.946820C267.381420,234.520290,266.782980,233.609090,266.051550,232.921950C264.980370,231.915620,263.301870,231.501390,257.422860,230.792500C242.474270,228.990020,215.079590,227.752820,208.589360,228.587100C205.731990,228.954390,207.254750,229.119900,216.779300,229.477290C237.923430,230.270670,253.371140,232.077220,264.456450,235.052960C267.310250,235.819020,267.381420,235.816440,267.381420,234.946870ZM174.513360,323.068430C175.076420,322.921400,175.537100,322.602540,175.537100,322.360110C175.537100,322.117680,176.324170,322.034840,177.286120,322.175940C179.835640,322.550130,178.813620,323.483240,175.941330,323.403740C174.592890,323.366440,173.950300,323.215580,174.513360,323.068350ZM181.240810,323.083930C181.643000,322.921630,182.301120,322.921630,182.703300,323.083930C183.105480,323.246220,182.776400,323.378980,181.972060,323.378980C181.167680,323.378980,180.838630,323.246330,181.240810,323.083930ZM171.295890,322.498900C171.698080,322.336600,172.356200,322.336600,172.758380,322.498900C173.160560,322.661180,172.831480,322.793950,172.027130,322.793950C171.222760,322.793950,170.893710,322.661010,171.295890,322.498900ZM158.279740,321.110950C157.515660,320.769330,158.226040,320.709610,160.327210,320.938950C162.096840,321.131970,163.654380,321.385900,163.788440,321.503200C164.306450,321.956380,159.387140,321.606240,158.279740,321.111070Z" transform="translate(-243.553734,-253.836945)" fill="rgb(0,0,0)" stroke="none" stroke-width="0.584994"/></g></g><g id="eb2n881sv4094_to" transform="translate(207.115386,635.081418)"><path id="eb2n881sv4094" d="M278.222080,327.138030C277.399040,326.839730,278.118170,322.744760,279.462070,320.076750C280.356750,318.300630,280.223930,315.831360,279.233710,315.831360C278.992470,315.831360,278.320120,317.871520,277.739600,320.365070C276.697610,324.840660,276.002760,326.361280,274.999580,326.361280C274.717220,326.361280,274.486200,325.836670,274.486200,325.195500C274.486200,324.218210,274.122950,324.043940,272.239610,324.117750C269.358930,324.230670,268.834500,323.871020,268.483490,321.542210C268.112160,319.078590,270.100100,312.558270,271.371280,312.070470C273.083520,311.413440,273.328610,312.577930,272.137710,315.712120C271.498890,317.393350,270.976220,319.446290,270.976220,320.274240L270.976220,321.779630L273.317700,319.925150C274.605510,318.905190,275.814600,317.369370,276.004560,316.512270C276.704340,313.354740,276.922850,312.906370,277.761950,312.906370C278.233260,312.906370,278.856950,313.498680,279.147950,314.222610C279.438920,314.946560,279.693680,315.209800,279.714070,314.807620C279.733970,314.405430,280.146040,314.076370,280.628650,314.076370C281.111280,314.076370,281.506160,313.704150,281.506160,313.249190C281.506160,312.572660,282.012210,312.619870,284.284890,313.508340C285.813190,314.105800,287.524300,314.733020,288.087360,314.902140C288.650410,315.071270,289.111100,315.692750,289.111100,316.283220C289.111100,317.752280,285.731990,320.910330,283.250750,321.760200C280.940230,322.551600,280.357930,323.195560,280.345120,324.973410C280.333520,326.362050,279.219510,327.499510,278.222080,327.138030ZM284.576480,319.341340C284.925530,319.341340,285.039720,319.169980,284.830210,318.960410C284.620610,318.751040,284.905810,318.232790,285.463950,317.809040C286.372170,317.119390,286.285750,317.036600,284.639970,317.019940C283.531780,317.008340,282.667530,317.349940,282.464580,317.878840C282.279310,318.361460,282.449080,318.760370,282.840740,318.765270C283.302560,318.772270,283.244580,318.996550,282.676250,319.405470C281.946460,319.930430,281.979140,319.978160,282.870380,319.689010C283.459740,319.497760,284.227560,319.341340,284.576610,319.341340ZM257.105840,322.851310C256.907840,322.094170,256.307880,321.681300,255.405610,321.681300C254.638780,321.681300,254.011350,321.480550,254.011350,321.235030C254.011350,320.989570,253.419050,320.528510,252.695110,320.210420C251.612590,319.734780,251.387930,319.189570,251.429860,317.140010C251.496160,313.895290,252.496850,312.119840,255.307360,310.259940C257.366390,308.897360,257.801920,308.813270,259.647140,309.422250C261.882460,310.159970,262.736630,311.435040,261.693980,312.477710C261.200410,312.971260,260.852150,312.961230,260.329310,312.438410C259.051630,311.160740,257.103850,311.683680,255.241950,313.804260C253.231030,316.094580,253.127590,316.503550,254.090590,318.356090C255.010690,320.126020,254.943040,320.095060,256.301240,319.368180C257.655790,318.643230,257.919560,317.259580,256.790080,316.803800C256.299020,316.605700,256.281030,316.493580,256.735380,316.462550C257.134900,316.435450,257.276790,315.899900,257.081980,315.154920C256.886380,314.406940,256.985280,314.037600,257.325090,314.247570C257.640240,314.442360,259.063770,314.660310,260.488480,314.731910C261.913170,314.803610,263.407910,314.976730,263.810090,315.116850C264.996120,315.529980,264.648910,316.367090,263.133800,316.747360C262.107180,317.005040,261.320100,318.037150,260.225550,320.560990C258.678470,324.128230,257.639320,324.891130,257.105900,322.851340ZM235.735790,318.939150C235.569920,318.034230,235.467920,316.175010,235.509110,314.807570C235.570510,312.771190,235.392570,312.321310,234.525730,312.321340C233.943680,312.321360,233.630160,312.584620,233.829000,312.906370C234.033710,313.237560,233.547580,313.491360,232.708560,313.491360C231.645990,313.491360,230.963660,313.999750,230.297620,315.287760C229.540290,316.752280,229.213310,316.955190,228.527620,316.386120C227.364810,315.421080,227.474360,314.262490,228.920350,312.231750C229.598950,311.278760,230.013570,310.358440,229.841720,310.186590C229.107960,309.452830,227.346770,311.258310,225.960840,314.165070C224.389740,317.460220,223.415920,318.112070,223.123510,316.064340C222.986370,315.104250,222.633890,314.894840,221.514780,315.108770C220.726520,315.259560,220.081610,315.131170,220.081610,314.823450C220.081610,314.515850,219.423490,313.964310,218.619110,313.597800C215.546350,312.197760,217.372420,305.825310,221.491100,303.575400C223.757180,302.337500,224.245870,302.263220,225.823880,302.916840C226.802120,303.322030,227.748580,304.034310,227.927150,304.499640C228.353700,305.611200,226.732290,306.208740,225.673650,305.330130C225.031610,304.797290,224.443220,304.851010,223.054110,305.569350C219.648590,307.330410,218.458050,311.098250,220.847110,312.554130C221.692190,313.069120,222.074820,312.970360,222.748310,312.063370C223.212060,311.438870,223.381450,310.780730,223.124720,310.600890C222.868000,310.421130,222.624940,309.732060,222.584580,309.069810C222.516380,307.950950,222.766790,307.883840,226.122620,308.121510C228.108910,308.262140,229.917160,308.664770,230.140980,309.016150C230.658560,309.828740,230.980500,309.489670,232.643340,306.380820C234.008240,303.828970,235.112530,303.319870,237.192730,304.283400C237.963640,304.640500,238.216470,305.464560,238.216470,307.620200C238.216470,309.442580,238.550520,310.816890,239.135750,311.402090C239.872770,312.139100,239.893230,312.321390,239.238940,312.321390C238.701600,312.321390,238.193660,313.554220,237.751570,315.931470C236.972020,320.123240,236.171660,321.317390,235.735740,318.939150ZM235.291490,308.939210L235.291490,307.381090L234.380120,308.682260C233.878840,309.397920,233.633790,310.250530,233.835530,310.576970C234.442090,311.558380,235.291490,310.603070,235.291490,308.939210ZM240.223950,316.147090C240.435030,313.257880,242.527900,306.768250,243.427950,306.211980C244.441260,305.585730,248.179140,307.201110,249.586290,308.873410C251.447250,311.085030,251.601030,314.434310,249.938620,316.547710C248.660920,318.172040,244.771470,319.476090,241.891240,319.245810L240.008550,319.095240ZM247.860030,314.430900C248.630280,313.660660,249.390220,313.160220,249.548790,313.318770C249.707370,313.477300,249.689710,312.988750,249.509590,312.232990C249.100040,310.515020,247.741920,309.396400,246.065620,309.396400C245.108890,309.396400,244.536880,310.000150,243.837440,311.748230C242.467400,315.172280,242.603080,315.831360,244.678000,315.831360C245.777320,315.831360,246.995900,315.295030,247.860030,314.430900ZM192.647050,310.933030C191.962750,310.107190,191.955420,309.687880,192.602050,308.355340C193.026770,307.480050,193.322850,306.459510,193.259990,306.087470C193.197190,305.715420,193.656500,304.115190,194.280770,302.531390L195.415800,299.651790L193.416320,298.928770C191.578490,298.264200,190.794890,296.962710,191.855610,296.336550C192.395050,296.018090,201.967520,297.522210,202.445900,298.000600C203.038940,298.593630,201.348830,299.286740,199.958010,299.020860C198.762540,298.792360,198.418190,299.312490,196.510650,304.227940C195.345070,307.231470,194.349120,309.425640,194.297410,309.103910C194.245710,308.782150,194.037130,309.283880,193.833890,310.219100C193.497350,311.767480,193.391380,311.831230,192.647090,310.933030ZM202.332580,311.074970C200.913020,310.249760,199.718070,307.322960,200.063320,305.516850C200.324230,304.152020,206.063090,298.866550,207.284120,298.866550C207.586700,298.866550,208.721580,299.237280,209.806070,299.690410C211.728950,300.493840,211.772780,300.588830,211.573430,303.519680C211.161160,309.580150,206.423880,313.453350,202.332580,311.074970ZM206.435570,308.005030C207.345060,307.239740,208.330640,306.586140,208.625760,306.552580C209.600420,306.441850,209.674090,302.386770,208.708160,302.016120C206.486560,301.163600,202.531710,304.667320,202.531710,307.487990C202.531710,309.810790,204.050490,310.011940,206.435550,308.005030ZM171.156730,306.187370C170.939670,305.621740,171.238030,303.835710,171.819510,302.218400C172.791740,299.514700,173.416510,296.526570,173.009570,296.526570C172.916370,296.526570,172.478920,296.971970,172.037350,297.516350C171.356080,298.356210,171.356730,298.432480,172.041350,298.019910C172.602490,297.681880,172.758490,297.781360,172.553220,298.346360C172.390820,298.793330,171.992760,299.103560,171.668660,299.035730C171.344540,298.967830,171.114200,299.362670,171.156780,299.912950C171.233880,300.908740,168.652780,301.796660,168.553620,300.808470C168.412990,299.406340,167.916420,296.816260,167.757940,296.657780C167.657650,296.557490,167.109160,298.198240,166.539170,300.303980C165.504510,304.126260,164.466730,305.707350,163.417960,305.059170C162.381580,304.418670,166.388590,292.560350,167.972120,291.581660C168.768760,291.089310,169.899250,292.331710,170.268880,294.105760L170.649210,295.931160L172.503360,294.195730C174.289180,292.524270,174.403280,292.497490,175.599130,293.469690L176.840730,294.479080L175.721140,297.989070C175.105360,299.919540,174.421270,302.327280,174.200950,303.339600C173.980630,304.351930,173.294280,305.638170,172.675740,306.197960C171.606850,307.165290,171.531540,307.164760,171.156470,306.186360ZM178.693170,306.623350C175.568770,306.445810,175.036940,306.254560,175.036940,305.308110C175.036940,304.698960,175.304490,304.035200,175.631480,303.833100C175.958470,303.631020,176.074560,303.220610,175.889450,302.921090C175.704350,302.621590,175.775670,302.376520,176.047920,302.376520C176.320180,302.376520,176.587380,301.786730,176.641670,301.065870C176.746160,299.679130,178.450420,294.758130,179.062580,294.075730C179.627150,293.446380,186.325160,294.975620,186.594270,295.795310C186.742610,296.247120,186.284770,296.526570,185.396220,296.526570C184.605270,296.526570,183.122990,296.693580,182.102260,296.897730C179.582000,297.401800,179.905720,299.056090,182.602010,299.451540C185.558740,299.885170,185.621330,301.186620,182.690710,301.294280C178.950720,301.431570,178.878650,301.448830,178.158110,302.372820C177.258940,303.525890,178.161110,304.107670,180.886980,304.131500C182.013100,304.140500,183.306220,304.384750,183.760580,304.672360C184.462230,305.116530,184.446500,305.335530,183.656080,306.125900C183.144270,306.637720,182.640890,307.005770,182.537470,306.943770C182.433990,306.881770,180.704130,306.737480,178.693210,306.623350ZM159.672170,304.366630C158.877010,303.571460,159.256740,300.941440,160.761890,296.819060C162.896230,290.973500,163.078000,290.228510,162.161300,291.083670C161.748870,291.468420,160.725870,291.646130,159.887990,291.478580C158.444320,291.189890,158.265040,291.437180,156.463330,296.202290C155.417650,298.967890,154.530950,301.949150,154.492890,302.827320L154.423690,304.424000L153.977130,302.669020L153.530550,300.914020L153.442750,302.669020C153.360150,304.318180,153.304590,304.357590,152.520790,303.322270C151.801900,302.372810,151.800350,301.948380,152.509190,300.251060C152.961790,299.167810,153.236610,298.281560,153.119890,298.281560C153.003210,298.281560,153.406600,296.916540,154.016390,295.248230C154.626180,293.579910,155.064170,292.177480,154.989700,292.131720C154.915200,292.086020,153.998730,291.707900,152.953050,291.291590C151.091010,290.550260,150.336660,288.982230,151.783060,288.859630C154.544380,288.625550,163.771360,290.292260,164.665800,291.186680C164.979740,291.500640,164.580300,293.415420,163.680250,295.910460C162.847820,298.218140,162.166740,300.587900,162.166740,301.176580C162.166740,302.507630,160.256020,304.950770,159.671870,304.366630Z" transform="rotate(1.350000) translate(-220.068314,-308.021622)" fill="rgb(3,152,158)" stroke="none" stroke-width="0.584994"/></g><g id="eb2n881sv4095_tr" transform="translate(243.537449,553.289390) rotate(0)"><g id="eb2n881sv4095_ts" transform="scale(1,1)"><path id="eb2n881sv4095" d="M336.571620,296.566140C335.212940,296.357620,334.973180,295.985130,334.651080,293.582570C333.734600,286.746510,333.646540,284.550920,334.264050,283.933410C334.617470,283.579990,334.906630,282.700890,334.906630,281.979860C334.906630,281.258830,335.176090,280.502350,335.505430,280.298810C335.898010,280.056180,335.982460,280.799770,335.750680,282.458030C335.488520,284.333510,335.558320,284.760480,336.020390,284.109810C336.363220,283.627200,336.647730,281.822100,336.652670,280.098500C336.659670,277.510240,336.504300,277.025090,335.757590,277.311600C335.019130,277.594970,334.876770,277.204640,334.980340,275.180450C335.075440,273.323170,334.193070,270.372300,331.458300,263.400860C328.877460,256.821850,328.009660,253.975600,328.493460,253.676590C329.000940,253.362940,329.010520,252.941870,328.530460,252.044960C328.083390,251.209580,328.072650,250.719170,328.495760,250.457720C329.267450,249.980780,330.811700,251.222380,330.811700,252.319770C330.811700,252.955570,331.072720,253.006530,331.943230,252.540630C333.708520,251.595870,334.148270,251.799310,334.536480,253.740350C334.735020,254.733270,335.975480,257.826430,337.292990,260.614050L339.688440,265.682440L340.661270,264.228750C341.196330,263.429220,342.378520,261.981340,343.288320,261.011270C344.441080,259.782170,344.198150,260.336470,342.487020,262.839770C338.036620,269.350430,340.422290,268.052360,345.427100,261.240040C353.915440,249.686090,353.671300,250.093760,350.123770,253.397540L346.982990,256.322510L350.095600,252.520050C353.265430,248.647660,353.629980,248.491530,356.697750,249.692320C358.550090,250.417360,358.701520,251.113920,357.335080,252.623820C356.800800,253.214180,356.559960,253.893040,356.799860,254.132370C357.039760,254.371700,357.859130,253.843590,358.620690,252.958790C360.275120,251.036640,360.646480,250.960720,360.646480,252.544610C360.646480,253.201630,358.999340,255.636670,356.986180,257.955830C350.644040,265.261910,346.402180,271.671840,344.182170,277.304010C343.182710,279.839700,341.930720,286.759760,341.680820,291.129760C341.571970,293.032180,339.549330,297.004970,338.747030,296.892070C338.404430,296.843870,337.425530,296.697190,336.571650,296.566130ZM337.061230,293.945060C336.874410,293.478380,336.735880,293.617010,336.707800,294.298490C336.682400,294.915180,336.820860,295.260690,337.015070,295.066300C337.209410,294.871900,337.230190,294.367340,337.061270,293.945060ZM344.895450,271.133940C345.319420,270.110430,347.569110,266.424950,349.894830,262.944020C352.220520,259.463070,354.010340,256.615020,353.872210,256.615020C353.391350,256.615020,344.783800,268.494360,343.639770,270.736830C342.733860,272.512600,342.662600,272.994900,343.306210,272.994900C343.756340,272.994900,344.471500,272.157470,344.895450,271.133940ZM234.656500,295.438640C233.156630,294.626110,233.009850,294.292950,233.276350,292.306040C233.470170,290.861070,233.296050,289.804020,232.778670,289.286760C232.150580,288.658680,232.099810,287.689780,232.537930,284.691610C232.843270,282.602000,233.247280,279.393470,233.435710,277.561550C233.699890,274.993390,233.970560,274.304520,234.617850,274.552910C235.214900,274.782020,235.457370,274.434630,235.457370,273.349990C235.457370,272.511180,235.250530,271.824910,234.997730,271.824910C234.744930,271.824910,234.538090,271.298410,234.538090,270.654910C234.538090,270.011420,234.744930,269.484920,234.997730,269.484920C235.250530,269.484920,235.457370,269.923660,235.457370,270.459920C235.457370,270.996160,235.629160,271.263120,235.839120,271.053150C236.049080,270.843190,236.198330,269.877950,236.170760,268.908160C236.143160,267.938390,236.366270,267.144940,236.666490,267.144940C237.399960,267.144940,237.366390,264.384210,236.627290,263.927460C236.305560,263.728600,236.036520,264.042110,236.029450,264.624180C236.022450,265.206230,235.522570,264.594380,234.918740,263.264730C234.314910,261.934970,233.505050,260.741730,233.119060,260.613060C232.733070,260.484330,232.283930,259.196310,232.120980,257.750610L231.824710,255.122100L235.395990,253.473350C238.867210,251.870820,239.879210,250.493290,238.089780,249.806620C237.607170,249.621440,237.212300,249.075020,237.212300,248.592410C237.212300,248.032590,237.547290,247.843470,238.137630,248.070000C238.646570,248.265300,239.831190,248.425090,240.770110,248.425090C242.128190,248.425090,242.477250,248.682870,242.477250,249.685740C242.477250,250.904920,242.515250,250.911930,243.635050,249.898620C244.668000,248.963810,244.831180,248.950720,245.148350,249.777290C245.398100,250.428170,246.228230,250.690840,247.939260,250.660420C251.951420,250.589120,259.080360,251.138910,260.138280,251.601270C262.009730,252.419170,262.902450,254.583800,262.735850,257.899700C262.574540,261.110620,262.042790,262.695180,261.283950,262.226190C261.054430,262.084400,260.089790,263.452000,259.140340,265.265450C256.360950,270.574010,252.274710,274.199100,246.143940,276.795100L240.875370,279.026040L240.498370,283.546820C240.290990,286.033260,240.280850,288.483280,240.475770,288.991300C240.903450,290.105830,237.934730,296.404480,236.997370,296.371350C236.632940,296.358250,235.579510,295.938780,234.656420,295.438690ZM246.162600,269.709340C249.255570,268.147180,253.974530,264.393670,255.423970,262.342790L256.784630,260.417480L254.360290,262.478860C253.026890,263.612620,249.676130,265.808670,246.914140,267.359010C244.152130,268.909320,241.892320,270.285140,241.892320,270.416350C241.892320,270.996320,244.454290,270.572130,246.162600,269.709340ZM245.964930,267.156350C248.412340,265.907770,255.347230,259.772700,255.347230,258.856140C255.347230,257.821960,244.700460,259.706220,243.755550,260.907630C242.983780,261.888930,242.439250,268.314930,243.127890,268.314930C243.439200,268.314930,244.715870,267.793570,245.964930,267.156350ZM266.246260,295.438640C264.746400,294.626110,264.599620,294.292950,264.866120,292.306040C265.059930,290.861070,264.885820,289.804020,264.368430,289.286760C263.740350,288.658680,263.689580,287.689780,264.127690,284.691610C264.433040,282.602000,264.837040,279.393470,265.025490,277.561550C265.289650,274.993390,265.560330,274.304520,266.207630,274.552910C266.804680,274.782020,267.047140,274.434630,267.047140,273.349990C267.047140,272.511180,266.840290,271.824910,266.587500,271.824910C266.334690,271.824910,266.127850,271.298410,266.127850,270.654910C266.127850,270.011420,266.334700,269.484920,266.587500,269.484920C266.840300,269.484920,267.047140,269.923660,267.047140,270.459920C267.047140,270.996160,267.218930,271.263120,267.428890,271.053150C267.638870,270.843190,267.788090,269.877950,267.760510,268.908160C267.732910,267.938390,267.956030,267.144940,268.256250,267.144940C268.989730,267.144940,268.956160,264.384210,268.217050,263.927460C267.895300,263.728600,267.626270,264.042110,267.619210,264.624180C267.612210,265.206230,267.112310,264.594380,266.508480,263.264730C265.904660,261.934970,265.094810,260.741730,264.708820,260.613060C264.322820,260.484330,263.873680,259.196310,263.710730,257.750610L263.414470,255.122100L266.985740,253.473350C270.456970,251.870820,271.468970,250.493290,269.679540,249.806620C269.196920,249.621440,268.802040,249.075020,268.802040,248.592410C268.802040,248.032590,269.137040,247.843470,269.727390,248.070000C270.236310,248.265300,271.420930,248.425090,272.359860,248.425090C273.717930,248.425090,274.067010,248.682870,274.067010,249.685740C274.067010,250.904920,274.105010,250.911930,275.224800,249.898620C276.257760,248.963810,276.420930,248.950720,276.738090,249.777290C276.987860,250.428170,277.817990,250.690840,279.529010,250.660420C283.541170,250.589120,290.670100,251.138910,291.728020,251.601270C293.599480,252.419170,294.492210,254.583800,294.325600,257.899700C294.164200,261.110620,293.632550,262.695180,292.873710,262.226190C292.644170,262.084400,291.679550,263.452000,290.730080,265.265450C287.950690,270.574010,283.864440,274.199100,277.733700,276.795100L272.465130,279.026040L272.088110,283.546820C271.880750,286.033260,271.870590,288.483280,272.065610,288.991300C272.493300,290.105830,269.524580,296.404480,268.587220,296.371350C268.222780,296.358250,267.169360,295.938780,266.246250,295.438690ZM277.752350,269.709340C280.845340,268.147180,285.564310,264.393670,287.013730,262.342790L288.374390,260.417480L285.950050,262.478860C284.616650,263.612620,281.265890,265.808670,278.503910,267.359010C275.741900,268.909320,273.482090,270.285140,273.482090,270.416350C273.482090,270.996320,276.044050,270.572130,277.752350,269.709340ZM277.554690,267.156350C280.002100,265.907770,286.936990,259.772700,286.936990,258.856140C286.936990,257.821960,276.290230,259.706220,275.345320,260.907630C274.573540,261.888930,274.029020,268.314930,274.717650,268.314930C275.028970,268.314930,276.305640,267.793570,277.554690,267.156350ZM224.342460,293.177250C224.342460,291.729380,224.079210,290.544770,223.757460,290.544770C223.435700,290.544770,223.172470,291.318980,223.172470,292.265230C223.172470,293.211480,222.873700,294.170340,222.508560,294.396000C222.028860,294.692470,221.957640,294.052800,222.251890,292.090550C222.482380,290.553610,222.428470,289.374780,222.127660,289.374780C221.835370,289.374780,221.358560,288.864680,221.068090,288.241220C220.561820,287.154620,220.360860,287.191030,216.216320,289.120430C212.520080,290.841130,211.430680,291.095000,208.708800,290.870090C206.957670,290.725400,205.132770,290.281550,204.653480,289.883780C203.105420,288.599000,201.625100,285.000310,200.635330,280.115640C199.584010,274.927140,199.941570,268.548010,201.893040,257.677090C202.806180,252.590370,204.393300,248.912390,204.433950,251.788800C204.444150,252.512740,204.194440,253.105060,203.878990,253.105060C203.563520,253.105060,203.406710,253.960610,203.530520,255.006280C203.654320,256.051960,203.496720,257.222790,203.180380,257.608120C202.818980,258.048320,202.808010,258.671230,203.150780,259.283890C203.578100,260.047460,203.784230,259.710460,204.100820,257.730640C204.738750,253.741280,206.578720,250.050450,207.803380,250.303650C208.571450,250.462430,208.802650,250.995940,208.695960,252.363370C208.517710,254.648020,209.547340,255.448940,210.056200,253.421470C210.261380,252.603940,210.698640,251.935060,211.027870,251.935060C211.758230,251.935060,211.459630,254.042800,209.411790,263.342470C207.678340,271.214510,207.246240,279.495050,208.455980,281.659140C208.871610,282.402620,209.431180,282.929110,209.699500,282.829130C210.681550,282.463160,221.517070,269.883810,222.043950,268.498010C222.342840,267.711930,222.587370,263.547600,222.587370,259.243940C222.587370,254.329440,222.819590,251.275580,223.211750,251.033230C223.557040,250.819830,223.983130,251.209530,224.165030,251.905150L224.493950,253.162950L225.610940,251.964000C226.225280,251.304590,226.952760,250.765070,227.227540,250.765070C227.887220,250.765070,228.427840,252.241290,228.476920,254.176640C228.516120,255.721410,228.523120,255.723930,229.151310,254.421290C229.810810,253.053850,230.490410,252.752520,231.011900,253.596320C231.178890,253.866520,230.704400,262.768510,229.957490,273.378520L228.599450,292.669450L227.029310,294.239580C224.850330,296.418570,224.342370,296.217740,224.342370,293.177250ZM211.180060,289.254130C210.214810,288.916840,208.881610,288.147870,208.217370,287.545330C206.781660,286.242960,206.123700,286.135490,206.560890,287.274780C206.956650,288.306130,210.203440,289.944120,211.765050,289.900270C212.600370,289.876770,212.433030,289.691990,211.180060,289.254130ZM203.337470,283.930680C202.573510,283.166700,202.467240,284.013380,203.119090,285.670710C203.525590,286.704250,203.548300,286.703760,203.758940,285.656210C203.879110,285.058970,203.689440,284.282380,203.337480,283.930450ZM216.941370,277.340120C219.096170,274.747110,218.685390,274.769110,216.152520,277.382320C215.061040,278.508430,214.417090,279.410790,214.721510,279.387570C215.025930,279.364370,216.024880,278.442970,216.941370,277.340080ZM202.112620,272.960370C202.112620,271.526330,201.880920,270.729060,201.527630,270.947410C201.205880,271.146270,200.942630,272.214800,200.942630,273.321920C200.942630,274.429050,201.205880,275.334880,201.527630,275.334880C201.849370,275.334880,202.112620,274.266350,202.112620,272.960370ZM202.697610,268.104090C202.697610,267.022870,202.821980,264.851080,202.973880,263.277860C203.185910,261.082470,203.058380,261.369490,202.424840,264.512460C201.407260,269.561380,201.378700,270.069930,202.112620,270.069930C202.434370,270.069930,202.697610,269.185290,202.697610,268.104090ZM175.056570,294.837300C175.458750,294.675020,176.116870,294.675020,176.519050,294.837300C176.921250,294.999580,176.592150,295.132360,175.787820,295.132360C174.983450,295.132360,174.654380,294.999570,175.056570,294.837300ZM177.250300,294.054750C177.051440,293.732990,176.387900,293.469740,175.775740,293.469740C175.163580,293.469740,173.450820,292.291910,171.969600,290.852330C169.689420,288.636240,169.304760,287.941090,169.460920,286.318610C169.643720,284.419200,169.669600,284.404050,172.394310,284.598720C178.086630,285.005460,186.220140,281.485970,187.944500,277.869920C188.882050,275.903860,188.876290,275.771500,187.819540,274.998760C186.605710,274.111190,183.235650,272.873540,179.590330,271.976580C178.303330,271.659890,176.746470,271.188250,176.130640,270.928440C175.338160,270.594130,175.134540,270.656100,175.433920,271.140500C175.666560,271.516930,175.634040,271.824920,175.361620,271.824920C174.542900,271.824920,169.352880,266.290260,169.352880,265.417170C169.352880,264.482030,172.567030,258.569380,173.899280,257.053770C174.394220,256.490710,175.166610,256.030030,175.615690,256.030030C176.064780,256.030030,178.459020,254.468030,180.936240,252.558890C185.342550,249.163040,185.495730,249.098170,187.997710,249.568390C189.404320,249.832750,190.720560,250.302300,190.922700,250.611860C191.124820,250.921420,192.429450,251.323470,193.821850,251.505310C197.654590,252.005830,200.538800,255.343220,197.286410,255.514250C196.222280,255.570250,196.306310,255.668990,197.725170,256.030030C199.144030,256.391070,199.228050,256.489860,198.163910,256.545820C196.798550,256.617620,196.289810,257.743080,197.578910,257.840000C197.981110,257.870200,196.586670,258.238620,194.480190,258.658670C189.798620,259.592190,185.968770,261.338780,183.026690,263.882020L180.805060,265.802460L183.122650,266.544650C187.765760,268.031570,192.796150,271.702390,195.665000,275.697210L197.543790,278.313380L195.990030,281.489130C194.148120,285.253880,188.800770,290.279690,185.624590,291.231290C184.427960,291.589810,183.502090,292.140010,183.567080,292.453940C183.691310,293.053850,180.293110,294.519120,178.601080,294.595240C178.057010,294.619740,177.449170,294.376500,177.250310,294.054750ZM182.222760,292.884750C182.896020,292.449660,182.691780,292.317680,181.345260,292.317680C180.380040,292.317680,179.195420,292.572860,178.712790,292.884750C178.039530,293.319840,178.243770,293.451820,179.590280,293.451820C180.555530,293.451820,181.740150,293.196640,182.222760,292.884750ZM186.317740,288.531480C186.317740,288.412030,185.791240,288.451980,185.147750,288.620280C184.504240,288.788560,183.977760,289.168060,183.977760,289.463600C183.977760,289.760470,184.501370,289.720720,185.147750,289.374800C185.791240,289.030410,186.317740,288.650930,186.317740,288.531500ZM190.997710,285.154610C190.997710,284.331090,189.906550,285.206710,189.160740,286.628620C188.492140,287.903370,188.496190,287.904540,189.742580,286.797870C190.432900,286.184960,190.997710,285.445480,190.997710,285.154610ZM183.939670,260.229500C185.709050,259.097650,188.218390,257.858110,189.515960,257.474980C191.683080,256.835110,192.482370,255.485880,190.429990,255.932050C188.304970,256.394010,182.064920,259.852710,180.039630,261.691130C177.481430,264.013300,178.793060,263.521750,183.939670,260.229500ZM296.383850,291.981450C295.049330,290.446630,295.148070,289.374780,296.623940,289.374780C297.711380,289.374780,297.709750,287.687750,296.620940,286.484860C295.882750,285.669190,295.901030,284.137730,296.764610,274.446380C297.807330,262.745800,298.675160,262.209110,298.165770,273.579890C297.686090,284.287260,298.451700,279.652260,299.518580,265.389960C300.084160,257.828880,300.775230,251.554810,301.054250,251.447560C301.333280,251.340310,301.561570,250.879620,301.561570,250.423810C301.561570,249.968010,302.088070,249.595080,302.731560,249.595080C303.599160,249.595080,303.901570,249.985070,303.901570,251.104050C303.901570,252.468850,304.065620,252.576990,305.618220,252.235980L307.334860,251.858940L307.038650,254.968230C305.566390,270.423170,304.697020,280.935040,304.873850,281.143750C304.990970,281.282060,306.991970,280.956450,309.320430,280.420270C311.648890,279.884100,314.738600,279.306560,316.186470,279.136860C317.634330,278.967160,316.127270,279.473410,312.837260,280.261870C306.922510,281.679400,302.396980,283.464900,306.826520,282.633330C307.952660,282.421940,309.875990,282.147320,311.100650,282.023090C312.325280,281.898860,314.394670,281.509780,315.699300,281.158500C320.871530,279.765760,331.683490,279.948230,330.252220,281.404100C329.896300,281.766130,328.231210,282.497200,326.552010,283.028730L323.498910,283.995110L325.692650,284.052410C326.899200,284.083910,327.886370,284.362870,327.886370,284.672220C327.886370,285.288840,326.568100,285.686690,317.216760,287.892240C313.761570,288.707150,308.496620,290.293580,305.516830,291.417620C299.040090,293.860820,298.069750,293.920720,296.383550,291.981390ZM319.854130,278.439450C320.423310,278.291140,321.213060,278.300850,321.609120,278.461050C322.005180,278.621310,321.539420,278.742650,320.574230,278.730720C319.609000,278.719120,319.284930,278.587630,319.854130,278.439380ZM146.514940,272.702400C146.451340,272.380650,146.430640,271.919970,146.468740,271.678660C146.506940,271.437350,146.340600,271.287780,146.099270,271.346300C145.857970,271.404800,144.550350,271.102480,143.193460,270.674450C140.758600,269.906370,140.321530,268.899920,142.422810,268.899920C144.223530,268.899920,143.175010,266.560100,141.197030,266.164490C139.062610,265.737600,139.019590,264.348890,141.126830,263.898110C142.011650,263.708870,143.324760,263.316030,144.044880,263.025190C144.765000,262.734330,145.686370,262.614590,146.092370,262.759080C146.498370,262.903630,149.322130,263.263550,152.367400,263.559050C155.412670,263.854550,157.978940,264.321570,158.070230,264.596880C158.161530,264.872200,159.750260,265.037660,161.600810,264.964570C163.451340,264.891470,164.636350,264.979270,164.234170,265.159550C163.831990,265.339890,163.502920,265.756920,163.502920,266.086280C163.502920,266.415630,163.831990,266.558910,164.234170,266.404660C164.677920,266.234450,164.997730,266.656170,165.047610,267.477320C165.118610,268.644620,164.732980,268.915550,162.240090,269.450180C160.650750,269.791030,158.968450,270.069910,158.501670,270.069910C157.461810,270.069910,157.379190,271.031930,158.384260,271.437470C158.786440,271.599750,157.981160,271.753310,156.594740,271.778710C155.026230,271.807410,154.212800,271.600300,154.441430,271.230370C154.643510,270.903360,155.053940,270.787270,155.353460,270.972390C155.652960,271.157500,155.898030,270.898490,155.898030,270.396930C155.898030,269.895320,155.634780,269.484910,155.313020,269.484910C154.991290,269.484910,154.728040,269.748160,154.728040,270.069910C154.728040,270.391660,153.838900,270.654900,152.752170,270.654900C151.665450,270.654900,150.433420,271.068080,150.014310,271.573080C149.595210,272.078060,148.785850,272.369260,148.215750,272.220170C147.645640,272.071080,147.055730,272.250170,146.904820,272.618240C146.752310,272.990210,146.579180,273.027580,146.515000,272.702440ZM157.360440,265.389960C157.559300,265.068210,157.195500,264.804960,156.552000,264.804960C155.908510,264.804960,155.219320,265.068210,155.020460,265.389960C154.821600,265.711700,155.185430,265.974950,155.828920,265.974950C156.472410,265.974950,157.161600,265.711700,157.360440,265.389960ZM184.558830,238.046680C183.513050,234.523990,183.113480,233.776910,182.759740,234.682950C182.509620,235.323560,182.275020,235.584430,182.238410,235.262690C182.201810,234.940940,181.959670,233.582360,181.700380,232.243610C181.324960,230.305310,181.389730,229.871240,182.018360,230.112470C182.989340,230.485080,183.002150,229.903910,182.101260,226.349900C181.242960,222.963810,181.127860,222.787190,180.471570,223.849080C180.109040,224.435670,179.970000,224.123930,180.007400,222.808400C180.036700,221.775440,180.238390,220.930290,180.455460,220.930290C180.672520,220.930290,180.733050,220.132650,180.590000,219.157770C180.399590,217.860430,180.073890,217.457500,179.375070,217.654780C178.849950,217.803030,176.379200,218.364040,173.884530,218.901480C171.389870,219.438930,169.215940,220.093580,169.053580,220.356260C168.891230,220.618950,170.800710,220.723620,173.296850,220.588880C178.183650,220.325080,178.110440,220.890050,173.106240,222.060030C168.355950,223.170650,166.707070,224.468030,165.882430,227.743960C165.489400,229.305280,164.616650,231.563640,163.942990,232.762530C162.893190,234.630790,162.502490,234.890950,161.209300,234.582890C158.948850,234.044370,158.820650,233.882400,159.415830,232.316990C159.828200,231.232350,159.771180,230.875220,159.185600,230.875220C158.757490,230.875220,158.132750,231.730770,157.797310,232.776460L157.187410,234.677690L157.127810,232.600950C157.094910,231.458750,156.775610,230.231730,156.418130,229.874240C155.801280,229.257410,156.568450,227.059050,161.438510,215.487660L162.375010,213.262500L158.697810,213.661400C156.675350,213.880800,154.625730,214.296320,154.143120,214.584790C153.594800,214.912510,154.308060,214.969200,156.044340,214.735890C157.919270,214.483940,158.823080,214.574370,158.823080,215.013910C158.823080,215.372190,158.194120,215.665340,157.425400,215.665340C154.969890,215.665340,153.650690,217.434180,152.189930,222.685280C151.429150,225.420140,150.785630,228.184240,150.759910,228.827740C150.579970,233.330450,149.583300,237.143070,148.198430,238.626420C145.816460,241.177770,144.968060,240.647010,145.307710,236.818040C145.381410,235.986200,145.187540,235.597790,144.813690,235.828820C144.475160,236.038060,144.198180,236.851810,144.198180,237.637200C144.198180,238.422580,143.934940,239.065160,143.613190,239.065160C143.291440,239.065160,143.028190,237.764460,143.028190,236.174710C143.028190,234.584960,142.808580,233.148530,142.540180,232.982640C142.271770,232.816760,140.976490,233.213240,139.661780,233.863700C136.684110,235.336940,132.748110,235.215350,132.872020,233.653940C132.933020,232.886810,132.510020,232.630200,131.184900,232.630200C125.652200,232.630200,122.300030,229.936330,121.319790,224.702370C120.240180,218.938030,121.551060,207.262900,123.236640,207.630030C123.584770,207.705830,124.002460,207.402180,124.164850,206.955210C124.345700,206.457490,124.204050,206.300840,123.799220,206.550980C122.907660,207.102010,122.967500,206.577680,124.030870,204.521360C124.904460,202.832010,125.878640,202.081350,125.321750,203.526670C125.166780,203.928850,126.915360,202.415180,129.207470,200.162940C131.499570,197.910700,133.305370,195.858740,133.220360,195.603030C132.909420,194.667650,137.237950,193.435650,140.815670,193.441200C144.887710,193.447200,150.111110,195.427450,151.090240,197.335740C151.916830,198.946740,152.393430,202.795420,151.766340,202.795420C151.464840,202.795420,151.218130,202.268930,151.218130,201.625430C151.218130,200.981940,150.954880,200.455440,150.633140,200.455440C150.311390,200.455440,150.048140,201.245190,150.048140,202.210430C150.048140,204.164010,149.250780,204.505360,148.340020,202.941670C148.012060,202.378610,147.735730,202.120710,147.725950,202.368560C147.715750,202.616420,146.620840,202.264510,145.291910,201.586520C142.090800,199.953430,139.797920,200.424290,136.404020,203.411730C130.409330,208.688470,126.879220,216.659060,128.355150,221.585240C129.077070,223.994790,130.638440,225.981620,132.810630,227.254740C133.800980,227.835170,133.838860,228.010340,133.083270,228.515570C131.295740,229.710810,134.944890,229.149760,136.927320,227.924540C138.833700,226.746340,144.783180,220.322160,144.783180,219.441890C144.783180,219.193270,143.094860,220.611070,141.031350,222.592550C136.376510,227.062360,135.184730,227.365760,139.518210,222.977770L142.695730,219.760300L140.814480,219.760300C139.779780,219.760300,138.933230,219.497050,138.933230,219.175300C138.933230,218.853550,138.538360,218.590300,138.055730,218.590300C137.573110,218.590300,137.178230,218.336320,137.178230,218.025890C137.178230,217.206020,139.204210,216.250330,140.942260,216.250330C141.767770,216.250330,142.443200,215.987080,142.443200,215.665330C142.443200,215.343570,141.571330,215.080340,140.505730,215.080340C139.029100,215.080340,138.258040,214.660720,137.264030,213.316270C135.649070,211.131930,135.504570,211.181860,144.783180,210.718120C151.088440,210.403000,158.245760,209.500180,156.044340,209.297650C155.642160,209.260650,155.313110,208.967130,155.313110,208.645380C155.313110,207.776460,156.476220,207.950230,159.331360,209.245750C161.487810,210.224240,161.773670,210.542120,161.160960,211.280380C160.558210,212.006670,160.630700,212.155350,161.587580,212.155350C162.366130,212.155350,163.082030,211.397670,163.792840,209.821360C164.710250,207.786910,164.935220,207.610330,165.545820,208.445370C166.176310,209.307620,166.279160,209.277790,166.574910,208.146880C166.755640,207.455810,166.664910,206.890400,166.373260,206.890400C166.081630,206.890400,165.843030,206.320730,165.843030,205.624470C165.843030,203.765580,167.701270,199.870450,168.588090,199.870450C169.505510,199.870450,169.580110,199.161560,168.750020,198.331480C168.336070,197.917520,168.550020,196.675520,169.432550,194.369280C170.459740,191.685110,170.933920,191.066510,171.792220,191.290960C172.382990,191.445440,174.226170,191.137010,175.888180,190.605520C178.171580,189.875310,178.967790,189.812590,179.146530,190.348830C179.276560,190.739120,180.246340,191.220420,181.301430,191.418360L183.219780,191.778240L185.255860,200.650550L187.291940,209.522870L189.291150,209.858830L191.290340,210.194780L189.665870,210.657440C187.311990,211.327840,188.709120,212.740340,191.726090,212.740340C193.661790,212.740340,193.949030,212.881410,193.388610,213.556650C193.016000,214.005610,191.864960,214.531730,190.830740,214.725810L188.950350,215.078680L189.031950,225.463170C189.076750,231.174650,189.302600,237.163920,189.533790,238.772650C189.926480,241.505180,189.893470,241.620640,189.032150,240.527640C188.457640,239.798580,188.103160,239.648980,188.091570,240.130680C188.074170,240.852560,186.707750,242.575130,186.152470,242.575130C186.015470,242.575130,185.298440,240.537320,184.559070,238.046680ZM136.154360,233.412760C135.752170,233.250480,135.094050,233.250480,134.691860,233.412760C134.289680,233.575050,134.618760,233.707830,135.423110,233.707830C136.227480,233.707830,136.556550,233.575030,136.154360,233.412760ZM188.131920,230.458510C187.569980,229.492910,187.521940,229.506180,187.505510,230.631460C187.485810,231.985630,188.228110,233.041520,188.540690,232.103800C188.650550,231.774060,188.466690,231.033680,188.131920,230.458510ZM183.685260,231.460200C183.884120,231.138470,183.636460,230.875220,183.134790,230.875220C182.633170,230.875220,182.222760,231.138470,182.222760,231.460200C182.222760,231.781960,182.470480,232.045210,182.773240,232.045210C183.075990,232.045210,183.486410,231.781960,183.685260,231.460200ZM142.443060,229.244640C142.443060,228.684890,141.933020,228.818740,140.688070,229.705220C139.722830,230.392530,138.933090,231.045710,138.933090,231.156740C138.933090,231.267760,139.722830,231.060540,140.688070,230.696140C141.653310,230.331810,142.443060,229.678620,142.443060,229.244640ZM177.806050,213.839390C178.467920,213.227180,177.290410,213.171070,174.690940,213.690970C173.685480,213.892060,172.862830,214.298860,172.862830,214.594970C172.862830,215.226700,176.987850,214.595970,177.806050,213.839380ZM164.299460,213.617850C164.484640,213.135220,164.409320,212.740350,164.132120,212.740350C163.854890,212.740350,163.476560,213.135220,163.291360,213.617850C163.106160,214.100470,163.181490,214.495330,163.458680,214.495330C163.735900,214.495330,164.114260,214.100470,164.299460,213.617850ZM168.570300,212.594110C168.408020,212.191920,168.275240,212.521010,168.275240,213.325340C168.275240,214.129710,168.408030,214.458780,168.570300,214.056590C168.732580,213.654410,168.732580,212.996290,168.570300,212.594110ZM176.006660,212.768350C178.385080,211.864080,178.738040,210.511690,177.641310,206.505160C177.104500,204.544130,176.430860,202.841380,176.144300,202.721290C175.707150,202.538060,171.784600,211.541190,171.715410,212.886600C171.683610,213.503660,174.259320,213.432690,176.006660,212.768320ZM165.842890,210.331320C165.842890,210.009570,165.579640,209.909020,165.257890,210.107860C164.936140,210.306720,164.672890,210.732660,164.672890,211.054410C164.672890,211.376150,164.936140,211.476710,165.257890,211.277850C165.579640,211.079000,165.842890,210.653070,165.842890,210.331320ZM171.015240,208.138760C171.843930,205.372860,171.857890,204.964350,171.107840,205.427900C170.786110,205.626770,170.522860,206.308670,170.522860,206.943270C170.522860,207.577880,170.144600,208.242250,169.682290,208.419660C169.220000,208.597060,168.984920,209.115290,169.159890,209.571290C169.697720,210.972830,170.307110,210.502320,171.015250,208.138760ZM142.303640,197.713520C141.744320,197.567110,140.691330,197.561780,139.963650,197.701920C139.235960,197.841820,139.693580,197.961640,140.980580,197.968140C142.267560,197.974140,142.862940,197.860160,142.303640,197.713730ZM256.231500,239.503900C256.094500,239.101720,255.879030,237.982910,255.752530,237.017670L255.522530,235.262690L255.434830,237.163920C255.377230,238.413540,255.050270,239.065160,254.480870,239.065160C253.803620,239.065160,253.681450,238.522600,253.921060,236.578930C254.366150,232.968250,253.739470,232.382980,250.950600,233.804830C248.759260,234.922040,244.262460,235.390390,243.457340,234.585270C243.245630,234.373570,243.334850,233.884040,243.655750,233.497460C244.093500,232.970020,243.439940,232.712110,241.037060,232.464110C234.256910,231.764340,232.430480,229.283960,232.059160,220.271600C231.843250,215.031570,232.004260,213.365860,233.051210,210.014280C233.738620,207.813520,234.711000,205.354780,235.212080,204.550410C235.713150,203.746050,236.004480,203.482800,235.859480,203.965410C235.714500,204.448040,237.733830,202.736920,240.346940,200.162940C242.960040,197.588970,245.041000,195.303930,244.971270,195.085100C244.724320,194.310040,248.791710,193.401220,252.191900,193.471740C254.522940,193.520040,256.628590,194.010560,258.692850,194.986040C261.255530,196.197070,261.842380,196.775770,262.345800,198.588400C262.675700,199.776140,262.930370,201.274430,262.911780,201.917940C262.882480,202.931100,262.789000,202.891890,262.213870,201.625430L261.549770,200.162940L261.336380,202.064180C261.115380,204.033520,260.428100,204.501290,259.617470,203.234170C259.360170,202.831990,258.886410,202.486230,258.564650,202.465840C258.242900,202.445540,256.965210,201.969830,255.725320,201.408940C252.709330,200.044530,250.539140,200.595150,247.351310,203.533590C243.319740,207.249770,240.820550,211.071960,239.752410,215.155110C238.230020,220.974790,239.508480,224.666770,243.939770,227.247450C244.945330,227.833070,244.986430,228.011290,244.232260,228.515570C243.533840,228.982570,243.666660,229.104140,244.883070,229.111270C245.723630,229.115270,247.425480,228.314320,248.664970,227.329290C251.375600,225.175150,256.106030,219.739160,255.658980,219.292120C255.483540,219.116670,254.406990,220.063100,253.266670,221.395300C252.126350,222.727510,250.351060,224.393520,249.321550,225.097550C247.991680,226.006990,248.375510,225.419650,250.647220,223.068950L253.844720,219.760300L252.109710,219.741700C250.293830,219.722300,248.327220,218.593260,248.327220,217.570300C248.327220,216.907630,250.244400,216.270630,252.275950,216.258310C252.999880,216.254310,253.592190,215.987080,253.592190,215.665320C253.592190,215.343570,252.688750,215.080340,251.584540,215.080340C250.020900,215.080340,249.300130,214.691660,248.325510,213.322930C246.772060,211.141300,246.670600,211.177100,255.639670,210.741790C264.328380,210.320070,267.992140,209.814450,266.963910,209.178970C265.380560,208.200410,266.957910,208.101230,269.629800,209.011420C271.857640,209.770520,272.353810,210.177510,272.123770,211.057200C271.917020,211.847810,272.148870,212.155350,272.951820,212.155350C273.565180,212.155350,274.067040,212.397640,274.067040,212.693780C274.067040,212.989920,272.290110,213.416420,270.118320,213.641580C267.946510,213.866730,265.774720,214.289070,265.292110,214.580120C264.741390,214.912200,265.480430,214.965570,267.276640,214.723360C269.343390,214.444700,270.024640,214.521950,269.728340,215.001390C269.502670,215.366530,268.716240,215.665300,267.980720,215.665300C267.245210,215.665300,266.181910,216.175270,265.617840,216.798550C264.217250,218.346170,261.942230,226.426320,261.450950,231.597890C261.228910,233.935260,260.785500,236.176700,260.465580,236.578880C260.145640,236.981070,260.035770,237.310130,260.221420,237.310130C260.407060,237.310130,259.900830,237.968250,259.096470,238.772620C257.479910,240.389170,256.608630,240.611560,256.231460,239.503870ZM247.303530,233.412760C246.901350,233.250480,246.243230,233.250480,245.841050,233.412760C245.438860,233.575050,245.767950,233.707830,246.572280,233.707830C247.376660,233.707830,247.705720,233.575030,247.303530,233.412760ZM253.592230,229.084620C253.592230,228.317570,251.743920,229.285250,250.619150,230.641180C249.837670,231.583250,249.899600,231.584230,251.691010,230.657980C252.736680,230.117370,253.592230,229.409290,253.592230,229.084490ZM235.439450,206.012900C235.439450,205.691150,235.184270,205.822780,234.872380,206.305390C234.560480,206.788020,234.305300,207.446140,234.305300,207.767890C234.305300,208.089630,234.560480,207.958010,234.872380,207.475380C235.184270,206.992770,235.439450,206.334650,235.439450,206.012900ZM253.452810,197.713520C252.893510,197.567110,251.840500,197.561780,251.112820,197.701920C250.385140,197.841820,250.842750,197.961640,252.129750,197.968140C253.416740,197.974140,254.012120,197.860160,253.452810,197.713730ZM198.992650,235.750180C198.778130,235.535690,198.602640,234.431280,198.602640,233.295950C198.602640,231.864060,198.131420,230.739880,197.064360,229.626100L195.526050,228.020470L196.521150,218.186680C197.566650,207.854590,198.665380,201.027620,200.100470,195.946520C200.882410,193.177980,201.143370,192.865850,202.961290,192.524810C204.061510,192.318410,205.302160,192.359960,205.718310,192.617110C206.134450,192.874300,208.323320,193.097830,210.582470,193.113850C215.726100,193.150250,219.303670,194.777510,223.552040,199.012890C228.123090,203.569980,229.777230,207.288690,229.788290,213.032800C229.801390,220.091370,227.835090,223.902800,221.939490,228.242880C217.985200,231.153860,211.095710,234.170110,206.431430,235.032350C203.703590,235.536610,203.004930,235.485170,202.156810,234.717640C200.808770,233.497680,200.357620,233.561000,200.357620,234.970140C200.357620,236.135600,199.734290,236.491790,198.992650,235.750130ZM206.080230,230.380600C206.247870,229.877130,205.966590,229.666330,205.299690,229.795610C204.726240,229.906780,204.139110,230.351920,203.994960,230.784830C203.827320,231.288300,204.108600,231.499110,204.775500,231.369830C205.348950,231.258660,205.936070,230.813510,206.080230,230.380600ZM211.326300,229.336510C212.050220,229.142510,212.642540,228.746210,212.642540,228.455860C212.642540,227.896360,210.022850,228.360560,208.547560,229.181380C207.844150,229.572780,207.902170,229.671600,208.840070,229.679450C209.483560,229.685450,210.602370,229.530520,211.326300,229.336510ZM222.587460,224.147760C223.343140,223.343390,223.829770,222.685280,223.668910,222.685280C223.508040,222.685280,222.758140,223.343390,222.002470,224.147760C221.246800,224.952140,220.760150,225.610260,220.921030,225.610260C221.081900,225.610260,221.831800,224.952140,222.587460,224.147760ZM210.987190,222.718500C218.629260,220.018230,220.534200,219.129050,219.735070,218.635170C219.203870,218.306870,219.276520,217.983990,220.020000,217.368680C222.840450,215.034480,224.158170,207.388030,222.217460,204.617270C219.949300,201.379030,211.038250,199.767770,208.169560,202.077190C206.902400,203.097300,205.691070,208.628210,204.745170,217.712810C204.544160,219.643300,204.243570,221.946720,204.077170,222.831520C203.677220,224.958350,204.695260,224.941690,210.987190,222.718470ZM227.798720,217.891720C229.023920,214.263720,229.369360,212.198410,228.626790,212.940980C227.934850,213.632930,225.617990,221.515280,226.106550,221.515280C226.364220,221.515280,227.125680,219.884680,227.798720,217.891720ZM223.172470,217.420320C223.516840,216.776820,223.667000,216.250330,223.506120,216.250330C223.345260,216.250330,222.931860,216.776820,222.587460,217.420320C222.243090,218.063810,222.092930,218.590310,222.253800,218.590310C222.414670,218.590310,222.828070,218.063810,223.172470,217.420320ZM225.594690,213.179100C225.873620,210.656830,225.559590,208.645380,224.886770,208.645380C224.587390,208.645380,224.342460,210.093250,224.342460,211.862860C224.342460,215.336670,225.250550,216.291150,225.594690,213.179100ZM200.276640,205.675940C201.023010,201.468760,201.491010,197.883840,201.316630,197.709470C200.945780,197.338600,200.709140,198.337650,199.488510,205.427910C198.989990,208.323640,198.450100,211.285170,198.288740,212.009100C198.127390,212.733040,198.203240,213.325340,198.457480,213.325340C198.711650,213.325340,199.530270,209.883110,200.276640,205.675940ZM221.417470,201.625430C220.953490,201.338680,220.442240,201.235680,220.281370,201.396560C220.120490,201.557420,220.368470,201.923670,220.832480,202.210430C221.296460,202.497190,221.807710,202.600180,221.968590,202.439310C222.129460,202.278440,221.881490,201.912190,221.417470,201.625430ZM180.581820,227.657740C180.593420,226.692490,180.724920,226.368450,180.873170,226.937630C181.021490,227.506820,181.011770,228.296550,180.851570,228.692610C180.691320,229.088670,180.569970,228.622910,180.581890,227.657740ZM262.842480,208.830760C263.264770,208.661780,263.769330,208.682560,263.963720,208.876960C264.158120,209.071340,263.812600,209.209610,263.195910,209.184200C262.514430,209.156000,262.375810,209.017510,262.842480,208.830780ZM239.844840,198.700460C240.427190,198.056960,241.035300,197.530460,241.196170,197.530460C241.357040,197.530460,241.012190,198.056960,240.429830,198.700460C239.847480,199.343950,239.239380,199.870450,239.078500,199.870450C238.917640,199.870450,239.262480,199.343950,239.844840,198.700460Z" transform="translate(-240.786629,-243.444489)" fill="rgb(181,255,0)" stroke="none" stroke-width="0.584994"/></g></g><g id="eb2n881sv4096_tr" transform="translate(294.543071,524.535656) rotate(-10)"><path id="eb2n881sv4096" d="M275.703855,222.431140C272.076520,220.988532,269.414248,218.857960,267.313175,215.716163C265.272511,212.664719,265.343763,204.971609,267.462198,199.624973C270.678744,191.506913,276.913285,186.971527,285.724592,186.339819C293.023602,185.816521,296.188269,186.589340,299.321047,189.660196C304.274632,194.515796,304.618821,200.839442,300.233502,206.423027C295.214178,212.813866,289.329208,215.990114,287.085200,213.519477C286.685854,213.079825,284.822497,212.599889,282.944351,212.452959C280.209312,212.238967,279.312221,211.751476,278.437600,210.003937C277.499461,208.129421,277.496025,207.468368,278.413301,205.311222C279.838015,201.960611,284.694350,199.282472,287.416481,200.346205C289.216621,201.049657,289.439039,201.615513,289.645361,206.016804C289.778838,208.864756,290.227397,210.905950,290.719629,210.905950C292.416993,210.905950,296.867541,206.337938,297.926250,203.509077C298.887290,200.941231,298.868373,200.261217,297.763953,197.662451C294.127878,189.107961,282.034039,188.184187,274.847968,195.912054C271.484934,199.528624,269.940082,203.711854,269.932282,209.222965C269.923137,215.554006,275.152128,219.387631,283.839600,219.419427C289.450444,219.440575,291.081220,218.853366,297.643632,214.454234C304.612223,209.782842,304.814091,213.109141,297.880760,218.363687C291.243228,223.394148,282.265575,225.040743,275.703920,222.431140ZM285.059925,208.175656C286.237700,206.860740,286.253861,203.226959,285.083049,203.226959C283.646276,203.226959,281.392692,205.912900,281.392692,207.625303C281.392692,209.422927,283.641652,209.760323,285.061088,208.175656Z" transform="translate(-280.170334,-210.811218)" fill="rgb(3,152,158)" stroke="none" stroke-width="0.584994"/></g></g></svg>